<?xml version="1.0" encoding="UTF-8"?>
<svg width="51px" height="51px" viewBox="0 0 51 51" version="1.1" xmlns="http://www.w3.org/2000/svg" xmlns:xlink="http://www.w3.org/1999/xlink">
    <!-- Generator: Sketch 45.2 (43514) - http://www.bohemiancoding.com/sketch -->
    <title>Group 16</title>
    <desc>Created with Sketch.</desc>
    <defs></defs>
    <g id="Page-1" stroke="none" stroke-width="1" fill="none" fill-rule="evenodd">
        <g id="Artboard" transform="translate(-679.000000, -2437.000000)">
            <g id="Group-52" transform="translate(-49.653832, 0.000000)">
                <g id="Group-33" transform="translate(237.000000, 1769.000000)">
                    <g id="Group-26" transform="translate(0.000000, 646.160034)">
                        <g id="Group-50" transform="translate(34.500000, 21.000000)">
                            <g id="Group-23" transform="translate(451.000000, 0.000000)">
                                <g id="Group-16" transform="translate(5.500000, 0.839759)">
                                    <g id="Group-6" transform="translate(0.838557, 0.251990)" fill="#FF9800">
                                        <rect id="Rectangle-8" x="0" y="0" width="50" height="50"></rect>
                                    </g>
                                    <path d="M12.7548386,18.2648883 L11.2654251,18.2648883 L11.2654251,32.2390912 L12.7548386,32.2390912 L12.7548386,34.1227612 L8.83855724,34.1227612 L8.83855724,16.3812183 L12.7548386,16.3812183 L12.7548386,18.2648883 Z M30.373724,16.3812183 L34.2987665,16.3812183 L34.2987665,34.1227612 L30.373724,34.1227612 L30.373724,32.2390912 L31.8718987,32.2390912 L31.8718987,18.2648883 L30.373724,18.2648883 L30.373724,16.3812183 Z M41.4567125,29.7771784 C41.4567125,29.5493846 41.4946776,29.3376563 41.5706088,29.1419873 C41.6465401,28.9463183 41.7575149,28.7769357 41.9035366,28.6338345 C42.0495582,28.4907333 42.227702,28.3768381 42.4379732,28.2921455 C42.6482444,28.207453 42.8847959,28.1651073 43.1476349,28.1651073 C43.4104739,28.1651073 43.6470254,28.207453 43.8572966,28.2921455 C44.0675678,28.3768381 44.2442513,28.4907333 44.3873526,28.6338345 C44.5304538,28.7769357 44.6414286,28.9463183 44.7202803,29.1419873 C44.799132,29.3376563 44.8385572,29.5493846 44.8385572,29.7771784 C44.8385572,29.9991313 44.799132,30.2064789 44.7202803,30.3992275 C44.6414286,30.5919761 44.5304538,30.7598985 44.3873526,30.9029997 C44.2442513,31.046101 44.0675678,31.158536 43.8572966,31.2403081 C43.6470254,31.3220802 43.4104739,31.3629657 43.1476349,31.3629657 C42.8847959,31.3629657 42.6482444,31.3220802 42.4379732,31.2403081 C42.227702,31.158536 42.0495582,31.046101 41.9035366,30.9029997 C41.7575149,30.7598985 41.6465401,30.5919761 41.5706088,30.3992275 C41.4946776,30.2064789 41.4567125,29.9991313 41.4567125,29.7771784 Z M41.4567125,22.5403811 C41.4567125,22.3125873 41.4946776,22.1008591 41.5706088,21.90519 C41.6465401,21.709521 41.7575149,21.5401384 41.9035366,21.3970372 C42.0495582,21.253936 42.227702,21.1400408 42.4379732,21.0553482 C42.6482444,20.9706557 42.8847959,20.92831 43.1476349,20.92831 C43.4104739,20.92831 43.6470254,20.9706557 43.8572966,21.0553482 C44.0675678,21.1400408 44.2442513,21.253936 44.3873526,21.3970372 C44.5304538,21.5401384 44.6414286,21.709521 44.7202803,21.90519 C44.799132,22.1008591 44.8385572,22.3125873 44.8385572,22.5403811 C44.8385572,22.762334 44.799132,22.9696817 44.7202803,23.1624303 C44.6414286,23.3551788 44.5304538,23.5231012 44.3873526,23.6662025 C44.2442513,23.8093037 44.0675678,23.9217387 43.8572966,24.0035108 C43.6470254,24.0852829 43.4104739,24.1261684 43.1476349,24.1261684 C42.8847959,24.1261684 42.6482444,24.0852829 42.4379732,24.0035108 C42.227702,23.9217387 42.0495582,23.8093037 41.9035366,23.6662025 C41.7575149,23.5231012 41.6465401,23.3551788 41.5706088,23.1624303 C41.4946776,22.9696817 41.4567125,22.762334 41.4567125,22.5403811 Z" id="[-]:" fill="#FFFFFF"></path>
                                </g>
                            </g>
                        </g>
                    </g>
                </g>
            </g>
        </g>
    </g>
</svg>