<?xml version="1.0" encoding="UTF-8"?>
<svg width="51px" height="51px" viewBox="0 0 51 51" version="1.1" xmlns="http://www.w3.org/2000/svg" xmlns:xlink="http://www.w3.org/1999/xlink">
    <!-- Generator: Sketch 45.2 (43514) - http://www.bohemiancoding.com/sketch -->
    <title>Group 6</title>
    <desc>Created with Sketch.</desc>
    <defs></defs>
    <g id="Page-1" stroke="none" stroke-width="1" fill="none" fill-rule="evenodd">
        <g id="Artboard" transform="translate(-456.000000, -2437.000000)">
            <g id="Group-52" transform="translate(-49.653832, 0.000000)">
                <g id="Group-33" transform="translate(237.000000, 1769.000000)">
                    <g id="Group-26" transform="translate(0.000000, 646.160034)">
                        <g id="Group-50" transform="translate(34.500000, 21.000000)">
                            <g id="Group-29" transform="translate(204.000000, 0.500000)">
                                <g id="Group-6" transform="translate(30.500000, 0.839759)">
                                    <rect id="Rectangle-8" fill="#2196F3" x="0" y="0" width="50" height="50"></rect>
                                    <g id="ic_search_black_24px-(10)" transform="translate(9.000000, 9.000000)" fill-rule="nonzero" fill="#FFFFFF">
                                        <path d="M22.8702115,20.1257862 L21.4248142,20.1257862 L20.9125214,19.6317896 C22.705546,17.5460263 23.78502,14.8381933 23.78502,11.89251 C23.78502,5.32418525 18.4608348,0 11.89251,0 C5.32418525,0 0,5.32418525 0,11.89251 C0,18.4608348 5.32418525,23.78502 11.89251,23.78502 C14.8381933,23.78502 17.5460263,22.705546 19.6317896,20.9125214 L20.1257862,21.4248142 L20.1257862,22.8702115 L29.2738708,32 L32,29.2738708 L22.8702115,20.1257862 L22.8702115,20.1257862 Z M11.89251,20.1257862 C7.33676387,20.1257862 3.65923385,16.4482561 3.65923385,11.89251 C3.65923385,7.33676387 7.33676387,3.65923385 11.89251,3.65923385 C16.4482561,3.65923385 20.1257862,7.33676387 20.1257862,11.89251 C20.1257862,16.4482561 16.4482561,20.1257862 11.89251,20.1257862 Z" id="Shape"></path>
                                    </g>
                                </g>
                            </g>
                        </g>
                    </g>
                </g>
            </g>
        </g>
    </g>
</svg>