<?xml version="1.0" encoding="UTF-8"?>
<svg width="33px" height="33px" viewBox="0 0 33 33" version="1.1" xmlns="http://www.w3.org/2000/svg" xmlns:xlink="http://www.w3.org/1999/xlink">
    <!-- Generator: Sketch 45.2 (43514) - http://www.bohemiancoding.com/sketch -->
    <title>Group 6</title>
    <desc>Created with Sketch.</desc>
    <defs></defs>
    <g id="Page-1" stroke="none" stroke-width="1" fill="none" fill-rule="evenodd">
        <g id="Artboard" transform="translate(-602.000000, -2143.000000)">
            <g id="Group-52" transform="translate(-49.653832, 0.000000)">
                <g id="Group-33" transform="translate(237.000000, 1769.000000)">
                    <g id="Group-34" transform="translate(415.000000, 373.138302)">
                        <g id="Group-32" transform="translate(0.000000, 0.500000)">
                            <g id="Group-31">
                                <g id="Group-6" transform="translate(0.000000, 0.500000)">
                                    <rect id="Rectangle-8" fill="#9013FE" x="0" y="0" width="32.0999985" height="32"></rect>
                                    <g id="directory" transform="translate(3.210000, 3.200000)" fill-rule="nonzero" fill="#FFFFFF">
                                        <path d="M10.808813,4.35344633 L12.5498299,6.08903955 C13.1301689,6.66757062 13.8265756,6.89898305 14.6390502,6.89898305 L21.370982,6.89898305 L21.2549142,21.2465537 L4.19294895,21.2465537 L4.19294895,4.35344633 L10.808813,4.35344633 L10.808813,4.35344633 Z M11.0409486,2.61785311 L3.84474558,2.61785311 C3.14833883,2.61785311 2.56799988,3.19638418 2.56799988,3.89062147 L2.56799988,21.7093785 C2.56799988,22.4036158 3.14833883,22.9821469 3.84474558,22.9821469 L21.7191854,22.9821469 C22.4155922,22.9821469 22.9959311,22.4036158 22.9959311,21.7093785 L23.1119989,6.43615819 C23.1119989,5.7419209 22.5316599,5.16338983 21.8352532,5.16338983 L14.6390502,5.16338983 C14.2908468,5.16338983 13.9426434,5.04768362 13.7105078,4.81627119 L11.8534232,2.96497175 C11.6212876,2.73355932 11.2730842,2.61785311 11.0409486,2.61785311 L11.0409486,2.61785311 Z" id="Shape"></path>
                                        <path d="M3.73527255,2.56 L11.0890904,2.56 C11.4392722,2.56 11.6727267,2.67636364 11.9061813,2.90909091 L13.7738175,4.77090909 C14.0072721,5.00363636 14.2407266,5.12 14.5909084,5.12 L21.9447262,5.12 C22.6450898,5.12 23.1119989,5.58545455 23.1119989,6.28363636 L23.1119989,7.79636364 C23.1119989,8.49454545 22.5283626,8.96 21.9447262,8.96 L3.73527255,8.96 C3.03490895,8.96 2.56799988,8.37818182 2.56799988,7.79636364 L2.56799988,3.72363636 C2.56799988,3.14181818 3.15163621,2.56 3.73527255,2.56 Z" id="Shape"></path>
                                    </g>
                                </g>
                            </g>
                        </g>
                    </g>
                </g>
            </g>
        </g>
    </g>
</svg>