<?xml version="1.0" encoding="UTF-8"?>
<svg width="51px" height="51px" viewBox="0 0 51 51" version="1.1" xmlns="http://www.w3.org/2000/svg" xmlns:xlink="http://www.w3.org/1999/xlink">
    <!-- Generator: Sketch 45.2 (43514) - http://www.bohemiancoding.com/sketch -->
    <title>Group 16</title>
    <desc>Created with Sketch.</desc>
    <defs></defs>
    <g id="Page-1" stroke="none" stroke-width="1" fill="none" fill-rule="evenodd">
        <g id="Artboard" transform="translate(-346.000000, -2437.000000)">
            <g id="Group-52" transform="translate(-49.653832, 0.000000)">
                <g id="Group-33" transform="translate(237.000000, 1769.000000)">
                    <g id="Group-26" transform="translate(0.000000, 646.160034)">
                        <g id="Group-50" transform="translate(34.500000, 21.000000)">
                            <g id="Group-22" transform="translate(123.000000, 0.000000)">
                                <g id="Group-16" transform="translate(0.500000, 0.839759)">
                                    <g id="Group-6" transform="translate(0.838557, 0.251990)">
                                        <rect id="Rectangle-8" fill="#F34F29" x="0" y="0" width="50" height="50"></rect>
                                        <path d="M29.1306065,24.0398903 C29.2818172,24.2026308 29.2746347,24.5630791 29.2549773,24.8256185 C29.1394902,26.3604063 30.1384253,27.6141314 31.5794625,27.7095831 C33.0303284,27.8057908 34.3046559,26.6301283 34.3103263,25.1898471 C34.3159967,23.7401153 33.1422243,22.6784277 31.5976078,22.6459174 C31.2088075,22.6377899 30.7563097,22.4601174 30.4540775,22.212699 C29.8475339,21.7163502 29.3198088,21.1228485 28.7684571,20.560912 C28.1292142,19.9093832 27.4903493,19.3858165 27.5377917,18.2230068 C27.5961968,16.7925543 26.2220703,15.8677124 24.7311335,15.948043 C24.4846602,15.9612739 24.1586123,15.8951193 23.9907685,15.7369152 C22.8933575,14.7011224 21.8295908,13.6297952 20.7633669,12.5786924 C21.8148477,11.4799582 22.7531096,10.3831142 23.8183884,9.4282191 C24.5181156,8.80107306 25.3998625,8.88650706 26.1721708,9.45260182 C26.4494532,9.65579109 26.6915792,9.91001394 26.9361624,10.1545971 C31.258707,14.4737395 35.5797395,18.7943939 39.8994489,23.1163715 C41.3610885,24.5787672 41.3654359,25.4962376 39.9208074,26.9416222 C35.5784164,31.2855252 31.2356474,35.6290503 26.8911773,39.9706852 C25.5108133,41.3502931 24.5784108,41.3523723 23.2078756,39.9852393 C18.8373216,35.625081 14.4665786,31.2653008 10.0981038,26.9030634 C8.63684217,25.4436919 8.63589711,24.533026 10.0837388,23.0846173 C12.8448447,20.3223773 15.6065177,17.5605153 18.3697028,14.8001654 C18.6105057,14.5595515 18.8634054,14.3312235 19.1730092,14.0380639 C20.29537,15.1581565 21.3895679,16.2357212 22.4582489,17.3378576 C22.5778943,17.4612833 22.6230685,17.7391328 22.5846988,17.9203965 C22.3559927,19.0002294 22.787132,19.7967313 23.541673,20.5263226 C23.7943838,20.7705277 23.9990851,21.1961856 24.0049445,21.542647 C24.0446373,23.935933 24.0508748,26.3305422 24.0011643,28.7234503 C23.9930367,29.1213232 23.7516668,29.6095445 23.4590742,29.8898512 C22.3206472,30.9806468 22.1924962,32.4736627 23.2222406,33.5894081 C24.153509,34.5983609 25.7833705,34.6592232 26.7910002,33.7226624 C27.8791496,32.7114414 27.8532548,31.1496247 26.8236995,30.014789 C26.5086144,29.6677606 26.2638422,29.1192441 26.2532575,28.6567286 C26.1976876,26.2125979 26.2271736,23.7665772 26.2271736,21.0869359 C27.3036042,22.17036 28.2414881,23.0825381 29.1306065,24.0398903 Z" id="Fill-1" fill="#FFFFFF"></path>
                                    </g>
                                </g>
                            </g>
                        </g>
                    </g>
                </g>
            </g>
        </g>
    </g>
</svg>