<?xml version="1.0" encoding="UTF-8"?>
<svg width="51px" height="51px" viewBox="0 0 51 51" version="1.1" xmlns="http://www.w3.org/2000/svg" xmlns:xlink="http://www.w3.org/1999/xlink">
    <!-- Generator: Sketch 45.2 (43514) - http://www.bohemiancoding.com/sketch -->
    <title>Group 2</title>
    <desc>Created with Sketch.</desc>
    <defs></defs>
    <g id="Page-1" stroke="none" stroke-width="1" fill="none" fill-rule="evenodd">
        <g id="Artboard" transform="translate(-790.000000, -2437.000000)">
            <g id="Group-52" transform="translate(-49.653832, 0.000000)">
                <g id="Group-33" transform="translate(237.000000, 1769.000000)">
                    <g id="Group-26" transform="translate(0.000000, 646.160034)">
                        <g id="Group-50" transform="translate(34.500000, 21.000000)">
                            <g id="Group-28" transform="translate(555.000000, 0.000000)">
                                <g id="Group-2" transform="translate(13.500000, 0.839759)">
                                    <g id="Group-6" transform="translate(0.137428, 0.251990)" fill="#4CAF50">
                                        <rect id="Rectangle-8" x="0" y="0" width="50" height="50"></rect>
                                    </g>
                                    <g id="close-black" transform="translate(9.137428, 9.251990)" fill-rule="nonzero" fill="#FFFFFF">
                                        <path d="M16,32 C7.163444,32 0,24.836556 0,16 C0,7.163444 7.163444,0 16,0 C24.836556,0 32,7.163444 32,16 C32,24.836556 24.836556,32 16,32 Z M26.1818182,7.86909091 L24.1309091,5.81818182 L16,13.9490909 L7.86909091,5.81818182 L5.81818182,7.86909091 L13.9490909,16 L5.81818182,24.1309091 L7.86909091,26.1818182 L16,18.0509091 L24.1309091,26.1818182 L26.1818182,24.1309091 L18.0509091,16 L26.1818182,7.86909091 Z" id="Combined-Shape"></path>
                                    </g>
                                </g>
                            </g>
                        </g>
                    </g>
                </g>
            </g>
        </g>
    </g>
</svg>