<?xml version="1.0" encoding="UTF-8"?>
<svg width="91px" height="61px" viewBox="0 0 91 61" version="1.1" xmlns="http://www.w3.org/2000/svg" xmlns:xlink="http://www.w3.org/1999/xlink">
    <!-- Generator: Sketch 45.2 (43514) - http://www.bohemiancoding.com/sketch -->
    <title>ic_laptop_black_24px</title>
    <desc>Created with Sketch.</desc>
    <defs></defs>
    <g id="Page-1" stroke="none" stroke-width="1" fill="none" fill-rule="evenodd">
        <g id="Artboard" transform="translate(-301.000000, -5742.000000)">
            <g id="Group-67" transform="translate(264.000000, 5727.000000)">
                <g id="Group-63" transform="translate(15.750000, 0.000000)">
                    <g id="ic_laptop_black_24px" transform="translate(21.000000, 0.000000)">
                        <rect id="Rectangle-38" x="0" y="0" width="91" height="91"></rect>
                        <path d="M75.4912581,67.9934435 C79.615056,67.9934435 82.9890726,64.619427 82.9890726,60.495629 L82.9890726,23.0065565 C82.9890726,18.8827585 79.615056,15.5087419 75.4912581,15.5087419 L15.5087419,15.5087419 C11.384944,15.5087419 8.01092742,18.8827585 8.01092742,23.0065565 L8.01092742,60.495629 C8.01092742,64.619427 11.384944,67.9934435 15.5087419,67.9934435 L0.513112905,67.9934435 L0.513112905,75.4912581 L90.4868871,75.4912581 L90.4868871,67.9934435 L75.4912581,67.9934435 Z M15.5087419,23.0065565 L75.4912581,23.0065565 L75.4912581,60.495629 L15.5087419,60.495629 L15.5087419,23.0065565 Z" id="Shape" fill="#424242" fill-rule="nonzero"></path>
                    </g>
                </g>
            </g>
        </g>
    </g>
</svg>