<?xml version="1.0" encoding="UTF-8"?>
<svg width="415px" height="293px" viewBox="0 0 415 293" version="1.1" xmlns="http://www.w3.org/2000/svg" xmlns:xlink="http://www.w3.org/1999/xlink">
    <!-- Generator: Sketch 46 (44423) - http://www.bohemiancoding.com/sketch -->
    <title>Chat img</title>
    <desc>Created with Sketch.</desc>
    <defs>
        <path d="M0.770482759,27.2150508 C0.770482759,42.2059661 13.132,54.3560678 28.3794483,54.3560678 C43.625931,54.3560678 55.9884138,42.2059661 55.9884138,27.2150508 C55.9884138,12.2241356 43.625931,0.0759322034 28.3794483,0.0759322034 C13.132,0.0759322034 0.770482759,12.2241356 0.770482759,27.2150508 Z" id="path-1"></path>
        <path d="M14.8062069,0.400542373 L12.2475862,8.19688136 C11.5321379,10.4776949 10.8997241,12.8752542 10.4034483,14.9804746 L10.3204138,14.9804746 C9.85213793,12.8154576 9.27572414,10.5061695 8.61434483,8.22820339 L6.19089655,0.400542373 L1.72827586,0.400542373 L0.492413793,19.8600678 L3.65544828,19.8600678 L4.06965517,12.0362034 C4.20772414,9.38237288 4.31875862,6.2900339 4.45682759,3.75010169 C4.95213793,6.17613559 5.61255172,8.83281356 6.32703448,11.3167458 L8.80551724,19.6284746 L11.4211034,19.6284746 L14.1206897,11.2 C14.9462069,8.74644068 15.7166897,6.11918644 16.3230345,3.75010169 L16.4041379,3.75010169 C16.378069,6.38020339 16.5151724,9.40989831 16.6262069,11.9223051 L16.9824828,19.8600678 L20.2864828,19.8600678 L19.2147586,0.400542373 L14.8062069,0.400542373 Z" id="path-3"></path>
        <path d="M0.604413793,5.83349153 C0.604413793,8.5499661 2.46303448,10.1986441 5.36441379,11.3214915 C7.61503448,12.1899661 8.5062069,13.0290169 8.5062069,14.4574915 C8.5062069,15.9941695 7.35434483,17.0344407 5.28717241,17.0344407 C3.63903448,17.0344407 2.06813793,16.4715932 1.02248276,15.8299661 L0.315724138,18.6850169 C1.28317241,19.2981695 3.22,19.8600678 5.07572414,19.8600678 C9.632,19.8600678 11.7754483,17.2290169 11.7754483,14.2040678 C11.7754483,11.4885424 10.2837241,9.83701695 7.22303448,8.6059661 C4.86717241,7.62359322 3.84758621,6.95159322 3.84758621,5.49559322 C3.84758621,4.40501695 4.73682759,3.23091525 6.77793103,3.23091525 C8.428,3.23091525 9.65613793,3.75959322 10.2837241,4.12501695 L11.0686897,1.35254237 C10.1533793,0.848542373 8.73889655,0.400542373 6.83296552,0.400542373 C3.01144828,0.400542373 0.604413793,2.75064407 0.604413793,5.83349153 Z" id="path-5"></path>
        <path d="M0.831457627,27.9800678 C0.831457627,42.9235254 12.9825085,55.0375593 27.9734237,55.0375593 C42.8893559,55.0375593 54.9957966,43.0374237 55.1115932,28.1917288 L55.1115932,27.7674576 C54.9957966,12.9255593 42.8893559,0.925423729 27.9734237,0.925423729 C12.9825085,0.925423729 0.831457627,13.0394576 0.831457627,27.9800678 Z" id="path-7"></path>
        <path d="M6.80352542,0.741288136 L6.80352542,13.844339 C6.80352542,17.3875254 5.4500339,18.355661 3.24420339,18.355661 C2.3320678,18.355661 1.48067797,18.1705763 0.852338983,17.9911864 L0.378711864,20.9838644 C1.19783051,21.2913898 2.55132203,21.4698305 3.6200678,21.4698305 C7.84284746,21.4698305 10.6760678,19.5943051 10.6760678,13.9648814 L10.6760678,0.741288136 L6.80352542,0.741288136 Z" id="path-9"></path>
    </defs>
    <g id="Page-1" stroke="none" stroke-width="1" fill="none" fill-rule="evenodd">
        <g id="Artboard" transform="translate(-179.000000, -4286.000000)">
            <g id="Group-52" transform="translate(-49.653832, 0.000000)">
                <g id="Real-time-collaboration-content" transform="translate(228.000000, 4257.000000)">
                    <g id="per-document-chat" transform="translate(0.000000, 30.500000)">
                        <g id="Chat-img">
                            <g id="Chat-left" transform="translate(0.000000, 140.000000)">
                                <g id="MS-Person-chat-bubble" transform="translate(52.000000, 0.000000)">
                                    <g id="Group-17" transform="translate(0.000000, 0.500000)">
                                        <path d="M0.9312,96.8499 L20.8352,75.1579 L20.8352,22.2859 C20.8352,10.0609 30.5882,0.1509 42.6212,0.1509 L229.4482,0.1509 C241.4812,0.1509 251.2302,10.0609 251.2302,22.2859 L251.2302,88.0349 C251.2302,100.2589 241.4812,110.1689 229.4482,110.1689 L42.6212,110.1689 C33.6652,110.1689 25.9742,104.6839 22.6262,96.8369 L0.9312,96.8499 Z" id="Fill-13" fill="#F5F5F5"></path>
                                        <path d="M0.9312,96.8499 L20.8352,75.1579 L20.8352,22.2859 C20.8352,10.0609 30.5882,0.1509 42.6212,0.1509 L229.4482,0.1509 C241.4812,0.1509 251.2302,10.0609 251.2302,22.2859 L251.2302,88.0349 C251.2302,100.2589 241.4812,110.1689 229.4482,110.1689 L42.6212,110.1689 C33.6652,110.1689 25.9742,104.6839 22.6262,96.8369 L0.9312,96.8499 Z" id="Stroke-15" stroke="#BDBDBD" stroke-width="3"></path>
                                    </g>
                                    <text id="Yes!-I’ll-add-it-to-the-" font-family="HelveticaNeue-Medium, Helvetica Neue" font-size="18.3002" font-weight="400" fill="#757575">
                                        <tspan x="50.9131" y="47.5">Yes! I’ll add it to the </tspan>
                                    </text>
                                    <text id="Notebook-now" font-family="HelveticaNeue-Medium, Helvetica Neue" font-size="18.3002" font-weight="400" fill="#757575">
                                        <tspan x="50.9131" y="69.5">Notebook now</tspan>
                                    </text>
                                </g>
                                <g id="MS-Person-circle" transform="translate(0.000000, 96.000000)">
                                    <g id="Group-20" transform="translate(0.000000, 0.446102)">
                                        <mask id="mask-2" fill="white">
                                            <use xlink:href="#path-1"></use>
                                        </mask>
                                        <g id="Clip-19"></g>
                                        <polygon id="Fill-18" fill="#A869AB" mask="url(#mask-2)" points="-4.27337931 59.3144407 61.0313103 59.3144407 61.0313103 -4.88338983 -4.27337931 -4.88338983"></polygon>
                                    </g>
                                    <g id="Group-23" transform="translate(9.655172, 17.530847)">
                                        <mask id="mask-4" fill="white">
                                            <use xlink:href="#path-3"></use>
                                        </mask>
                                        <g id="Clip-22"></g>
                                        <polygon id="Fill-21" fill="#FEFEFE" mask="url(#mask-4)" points="-4.55241379 24.8193898 25.3303448 24.8193898 25.3303448 -4.55783051 -4.55241379 -4.55783051"></polygon>
                                    </g>
                                    <g id="Group-26" transform="translate(33.793103, 17.530847)">
                                        <mask id="mask-6" fill="white">
                                            <use xlink:href="#path-5"></use>
                                        </mask>
                                        <g id="Clip-25"></g>
                                        <polygon id="Fill-24" fill="#FEFEFE" mask="url(#mask-6)" points="-4.72813793 24.8193898 16.8202759 24.8193898 16.8202759 -4.55783051 -4.72813793 -4.55783051"></polygon>
                                    </g>
                                </g>
                            </g>
                            <g id="Chat-right" transform="translate(113.000000, 0.000000)">
                                <g id="JH-Person-circle" transform="translate(247.000000, 96.000000)">
                                    <g id="Group-3" transform="translate(0.000000, 0.446102)">
                                        <mask id="mask-8" fill="white">
                                            <use xlink:href="#path-7"></use>
                                        </mask>
                                        <g id="Clip-2"></g>
                                        <polygon id="Fill-1" fill="#2EC0D5" mask="url(#mask-8)" points="-4.18671186 60.0557288 60.1307119 60.0557288 60.1307119 -4.09369492 -4.18671186 -4.09369492"></polygon>
                                    </g>
                                    <g id="Group-6" transform="translate(11.389831, 17.530847)">
                                        <mask id="mask-10" fill="white">
                                            <use xlink:href="#path-9"></use>
                                        </mask>
                                        <g id="Clip-5"></g>
                                        <polygon id="Fill-4" fill="#FEFEFE" mask="url(#mask-10)" points="-4.63945763 26.4889492 15.6942373 26.4889492 15.6942373 -4.27783051 -4.63945763 -4.27783051"></polygon>
                                    </g>
                                    <polygon id="Fill-7" fill="#FEFEFE" points="39.0192814 18.2730847 39.0192814 26.1624407 30.1228746 26.1624407 30.1228746 18.2730847 26.2788068 18.2730847 26.2788068 37.9651525 30.1228746 37.9651525 30.1228746 29.2870508 39.0192814 29.2870508 39.0192814 37.9651525 42.8633492 37.9651525 42.8633492 18.2730847"></polygon>
                                </g>
                                <g id="JH-Person-chat-bubble">
                                    <g id="Group-12" transform="translate(0.000000, 0.470000)">
                                        <path d="M250.8761,96.7659 L230.9731,75.0749 L230.9731,22.2019 C230.9731,9.9769 221.2201,0.0669 209.1871,0.0669 L22.3591,0.0669 C10.3261,0.0669 0.5771,9.9769 0.5771,22.2019 L0.5771,87.9509 C0.5771,100.1749 10.3261,110.0849 22.3591,110.0849 L209.1871,110.0849 C218.1421,110.0849 225.8331,104.5999 229.1821,96.7529 L250.8761,96.7659 Z" id="Fill-8" fill="#FFFFFF"></path>
                                        <path d="M250.8761,96.7659 L230.9731,75.0749 L230.9731,22.2019 C230.9731,9.9769 221.2201,0.0669 209.1871,0.0669 L22.3591,0.0669 C10.3261,0.0669 0.5771,9.9769 0.5771,22.2019 L0.5771,87.9509 C0.5771,100.1749 10.3261,110.0849 22.3591,110.0849 L209.1871,110.0849 C218.1421,110.0849 225.8331,104.5999 229.1821,96.7529 L250.8761,96.7659 Z" id="Stroke-10" stroke="#BDBDBD" stroke-width="3"></path>
                                    </g>
                                    <text id="yesterday’s-data?-" font-family="HelveticaNeue-Medium, Helvetica Neue" font-size="17.1565" font-weight="400" fill="#757575">
                                        <tspan x="58.970037" y="68.162929">yesterday’s data? </tspan>
                                    </text>
                                    <text id="Do-you-have-access-to-" font-family="HelveticaNeue-Medium, Helvetica Neue" font-size="17.1565" font-weight="400" fill="#757575">
                                        <tspan x="19.5444" y="47.575129">Do you have access to </tspan>
                                    </text>
                                </g>
                            </g>
                        </g>
                    </g>
                </g>
            </g>
        </g>
    </g>
</svg>