<?xml version="1.0" encoding="UTF-8"?>
<svg width="56px" height="55px" viewBox="0 0 56 55" version="1.1" xmlns="http://www.w3.org/2000/svg" xmlns:xlink="http://www.w3.org/1999/xlink">
    <!-- Generator: Sketch 46 (44423) - http://www.bohemiancoding.com/sketch -->
    <title>MS Person circle</title>
    <desc>Created with Sketch.</desc>
    <defs>
        <path d="M0.770482759,27.2150508 C0.770482759,42.2059661 13.132,54.3560678 28.3794483,54.3560678 C43.625931,54.3560678 55.9884138,42.2059661 55.9884138,27.2150508 C55.9884138,12.2241356 43.625931,0.0759322034 28.3794483,0.0759322034 C13.132,0.0759322034 0.770482759,12.2241356 0.770482759,27.2150508 Z" id="path-1"></path>
        <path d="M14.8062069,0.400542373 L12.2475862,8.19688136 C11.5321379,10.4776949 10.8997241,12.8752542 10.4034483,14.9804746 L10.3204138,14.9804746 C9.85213793,12.8154576 9.27572414,10.5061695 8.61434483,8.22820339 L6.19089655,0.400542373 L1.72827586,0.400542373 L0.492413793,19.8600678 L3.65544828,19.8600678 L4.06965517,12.0362034 C4.20772414,9.38237288 4.31875862,6.2900339 4.45682759,3.75010169 C4.95213793,6.17613559 5.61255172,8.83281356 6.32703448,11.3167458 L8.80551724,19.6284746 L11.4211034,19.6284746 L14.1206897,11.2 C14.9462069,8.74644068 15.7166897,6.11918644 16.3230345,3.75010169 L16.4041379,3.75010169 C16.378069,6.38020339 16.5151724,9.40989831 16.6262069,11.9223051 L16.9824828,19.8600678 L20.2864828,19.8600678 L19.2147586,0.400542373 L14.8062069,0.400542373 Z" id="path-3"></path>
        <path d="M0.604413793,5.83349153 C0.604413793,8.5499661 2.46303448,10.1986441 5.36441379,11.3214915 C7.61503448,12.1899661 8.5062069,13.0290169 8.5062069,14.4574915 C8.5062069,15.9941695 7.35434483,17.0344407 5.28717241,17.0344407 C3.63903448,17.0344407 2.06813793,16.4715932 1.02248276,15.8299661 L0.315724138,18.6850169 C1.28317241,19.2981695 3.22,19.8600678 5.07572414,19.8600678 C9.632,19.8600678 11.7754483,17.2290169 11.7754483,14.2040678 C11.7754483,11.4885424 10.2837241,9.83701695 7.22303448,8.6059661 C4.86717241,7.62359322 3.84758621,6.95159322 3.84758621,5.49559322 C3.84758621,4.40501695 4.73682759,3.23091525 6.77793103,3.23091525 C8.428,3.23091525 9.65613793,3.75959322 10.2837241,4.12501695 L11.0686897,1.35254237 C10.1533793,0.848542373 8.73889655,0.400542373 6.83296552,0.400542373 C3.01144828,0.400542373 0.604413793,2.75064407 0.604413793,5.83349153 Z" id="path-5"></path>
    </defs>
    <g id="Page-1" stroke="none" stroke-width="1" fill="none" fill-rule="evenodd">
        <g id="Artboard" transform="translate(-179.000000, -4524.000000)">
            <g id="Group-52" transform="translate(-49.653832, 0.000000)">
                <g id="Real-time-collaboration-content" transform="translate(228.000000, 4257.000000)">
                    <g id="per-document-chat" transform="translate(0.000000, 30.500000)">
                        <g id="Chat-img">
                            <g id="Chat-left" transform="translate(0.000000, 140.000000)">
                                <g id="MS-Person-circle" transform="translate(0.000000, 96.000000)">
                                    <g id="Group-20" transform="translate(0.000000, 0.446102)">
                                        <mask id="mask-2" fill="white">
                                            <use xlink:href="#path-1"></use>
                                        </mask>
                                        <g id="Clip-19"></g>
                                        <polygon id="Fill-18" fill="#A869AB" mask="url(#mask-2)" points="-4.27337931 59.3144407 61.0313103 59.3144407 61.0313103 -4.88338983 -4.27337931 -4.88338983"></polygon>
                                    </g>
                                    <g id="Group-23" transform="translate(9.655172, 17.530847)">
                                        <mask id="mask-4" fill="white">
                                            <use xlink:href="#path-3"></use>
                                        </mask>
                                        <g id="Clip-22"></g>
                                        <polygon id="Fill-21" fill="#FEFEFE" mask="url(#mask-4)" points="-4.55241379 24.8193898 25.3303448 24.8193898 25.3303448 -4.55783051 -4.55241379 -4.55783051"></polygon>
                                    </g>
                                    <g id="Group-26" transform="translate(33.793103, 17.530847)">
                                        <mask id="mask-6" fill="white">
                                            <use xlink:href="#path-5"></use>
                                        </mask>
                                        <g id="Clip-25"></g>
                                        <polygon id="Fill-24" fill="#FEFEFE" mask="url(#mask-6)" points="-4.72813793 24.8193898 16.8202759 24.8193898 16.8202759 -4.55783051 -4.72813793 -4.55783051"></polygon>
                                    </g>
                                </g>
                            </g>
                        </g>
                    </g>
                </g>
            </g>
        </g>
    </g>
</svg>