<?xml version="1.0" encoding="utf-8"?>
<!-- Generator: Adobe Illustrator 19.2.1, SVG Export Plug-In . SVG Version: 6.00 Build 0)  -->
<svg version="1.1" id="Layer_1" xmlns="http://www.w3.org/2000/svg" xmlns:xlink="http://www.w3.org/1999/xlink" x="0px" y="0px"
	 viewBox="0 0 824 150" style="enable-background:new 0 0 824 150;" xml:space="preserve">
<style type="text/css">
	.st0{fill:#FFFFFF;}
	.st1{fill:#F37826;}
</style>
<g>
	<g>
		<path class="st0" d="M624.9,10.8h21.4v99.9h-21.4V10.8z"/>
		<path class="st0" d="M702.9,110.7l-1.3-6.9h-0.4c-4.5,5.5-11.6,8.4-19.7,8.4c-14,0-22.3-10.1-22.3-21.1
			c0-17.9,16.1-26.5,40.5-26.3v-1c0-3.7-2-8.9-12.6-8.9c-7.1,0-14.5,2.4-19,5.2l-3.9-13.8c4.8-2.7,14.2-6,26.8-6
			c23,0,30.3,13.5,30.3,29.7v24c0,6.6,0.3,12.9,1,16.7H702.9z M700.4,78.2c-11.3-0.1-20,2.5-20,10.8c0,5.5,3.7,8.2,8.5,8.2
			c5.4,0,9.7-3.5,11.1-7.9c0.3-1.1,0.4-2.4,0.4-3.7V78.2z"/>
		<path class="st0" d="M737.6,110.7c0.3-4.5,0.6-12.8,0.6-20.5V10.8h21.4v39.3h0.3c4.1-5.9,11.3-9.7,20.9-9.7
			c16.5,0,28.6,13.6,28.5,34.8c0,24.8-15.8,37.1-31.6,37.1c-8,0-15.8-3-20.7-11.1h-0.3l-0.8,9.6L737.6,110.7L737.6,110.7z
			 M759.6,81.5c0,1.4,0.1,2.7,0.4,3.8c1.4,5.8,6.3,10.1,12.6,10.1c9.2,0,14.8-7,14.8-19.4c0-10.7-4.8-19.1-14.8-19.1
			c-5.8,0-11.1,4.4-12.6,10.6c-0.3,1.3-0.4,2.5-0.4,3.9V81.5z"/>
	</g>
	<g id="Page-1_1_">
		<g id="logo_2_">
			<g id="logo.svg_1_">
				<g id="Canvas_1_">
					<g id="logo_3_">
						<g id="g_1_">
							<g id="path_3_" transform="translate(0.000000, 109.804878)">
								<g id="path8-fill_1_">
									<g id="path1_fill-link_1_" transform="translate(0.078947, 0.778049)">
										<path id="path1_fill_1_" class="st1" d="M76.7,8.7C51,8.7,28.7-0.7,17-14.5C21.4-2.1,29.4,8.7,40.1,16.3S63.6,28,76.7,28
											s25.9-4.1,36.6-11.7S132-2.1,136.4-14.5C124.7-0.7,102.3,8.7,76.7,8.7L76.7,8.7z"/>
									</g>
								</g>
							</g>
							<g id="path_2_">
								<g id="path9-fill_1_">
									<g id="path2_fill-link_1_" transform="translate(0.037368, 0.704878)">
										<path id="path2_fill_1_" class="st1" d="M76.7,28.4c25.6,0,48,9.4,59.6,23.2c-4.3-12.4-12.4-23.2-23.1-30.8
											C102.6,13.2,89.8,9.1,76.7,9.1s-25.9,4.1-36.6,11.7S21.4,39.2,17,51.6C28.7,37.8,51.1,28.4,76.7,28.4L76.7,28.4z"/>
									</g>
								</g>
							</g>
						</g>
					</g>
				</g>
			</g>
		</g>
	</g>
	<g id="Group_1_" transform="translate(31.862673, 4.644772)">
		<path id="Fill-1_1_" class="st0" d="M144.3,93.8c0,16.5-1.3,21.9-4.7,25.9c-3,3.3-7.9,4.8-13.6,5.3l1.3,9.8
			c6.6,0,15.7-2.3,21.2-7.8c6.1-6.3,8.2-15,8.2-28.4V36.1h-12.4L144.3,93.8"/>
		<path id="Fill-2_1_" class="st0" d="M237,86.2c0,7.1,0.1,13.4,0.6,18.8h-11l-0.7-11.3h-0.3c-3.2,5.6-10.4,12.8-22.6,12.8
			c-10.7,0-23.6-6-23.6-30.2V36.1h12.4v38.2c0,13.1,4,21.9,15.2,21.9c8.3,0,14.1-5.8,16.4-11.4c0.7-1.9,1.1-4.1,1.1-6.4V36.1H237
			V86.2"/>
		<path id="Fill-3_1_" class="st0" d="M260.5,58.6c0-8.8-0.3-16-0.6-22.5h11.2l0.6,11.8h0.3c5.1-8.4,13.1-13.4,24.3-13.4
			c16.5,0,28.9,14.1,28.9,35.1c0,24.8-15,37.1-31.1,37.1c-9,0-16.9-4-21-10.8h-0.3v37.5h-12.3V58.6L260.5,58.6z M272.7,77
			c0,1.9,0.3,3.6,0.6,5.1c2.3,8.7,9.7,14.7,18.6,14.7c13.1,0,20.8-10.8,20.8-26.7c0-13.8-7.2-25.7-20.3-25.7
			c-8.5,0-16.4,6.1-18.8,15.5c-0.4,1.6-0.8,3.4-0.8,5.1v12H272.7z"/>
		<path id="Fill-4_1_" class="st0" d="M347.1,36.1l15,40.8c1.6,4.6,3.2,10,4.4,14.1h0.3c1.3-4.1,2.7-9.4,4.4-14.4l13.6-40.5h13.1
			l-18.6,49.2c-8.9,23.7-15,35.8-23.4,43.2c-6.1,5.4-12.1,7.6-15.2,8.1l-3.1-10.5c3.1-1,7.2-3,10.9-6.1c3.4-2.7,7.6-7.6,10.4-14
			c0.6-1.3,1-2.3,1-3s-0.3-1.7-0.8-3.3l-25.3-63.6L347.1,36.1"/>
		<path id="Fill-5_1_" class="st0" d="M430.5,16.3v19.8h17.8v9.5h-17.8v37.2c0,8.6,2.4,13.4,9.3,13.4c3.2,0,5.6-0.4,7.2-0.9l0.6,9.4
			c-2.4,1-6.2,1.7-11,1.7c-5.8,0-10.4-1.9-13.4-5.3c-3.5-3.7-4.8-9.8-4.8-18V45.6h-10.6v-9.5h10.6V19.5L430.5,16.3"/>
		<path id="Fill-6_1_" class="st0" d="M471.1,72.8c0.3,17,11,23.9,23.4,23.9c8.9,0,14.3-1.6,18.9-3.6l2.1,9
			c-4.4,2-11.9,4.3-22.7,4.3c-21,0-33.6-14-33.6-34.8s12.1-37.2,32-37.2c22.3,0,28.2,19.8,28.2,32.5c0,2.6-0.3,4.6-0.4,5.8
			L471.1,72.8L471.1,72.8z M507.5,63.9c0.1-8-3.2-20.4-17.2-20.4c-12.6,0-18.1,11.7-19.1,20.4H507.5L507.5,63.9z"/>
		<path id="Fill-7_1_" class="st0" d="M537.8,57.6c0-8.1-0.1-15.1-0.6-21.5h10.9l0.4,13.5h0.6c3.1-9.3,10.6-15.1,18.9-15.1
			c1.4,0,2.4,0.1,3.5,0.4v11.8c-1.3-0.3-2.5-0.4-4.2-0.4c-8.8,0-15,6.7-16.7,16.1c-0.3,1.7-0.6,3.7-0.6,5.8V105h-12.3L537.8,57.6"/>
	</g>
</g>
</svg>
