<?xml version="1.0" encoding="utf-8"?>
<!-- Generator: Adobe Illustrator 21.0.0, SVG Export Plug-In . SVG Version: 6.00 Build 0)  -->
<svg version="1.1" id="Layer_1" xmlns="http://www.w3.org/2000/svg" xmlns:xlink="http://www.w3.org/1999/xlink" x="0px" y="0px"
	 viewBox="0 0 2340 475" style="enable-background:new 0 0 2340 475;" xml:space="preserve">
<style type="text/css">
	.st0{fill:#FFFFFF;}
	.st1{fill:#F37726;}
</style>
<title>fulllogo-greytext-orangebody-greymoons (1)</title>
<desc>Created with Sketch.</desc>
<g id="Page-1">
	<g id="fulllogo-greytext-orangebody-greymoons-_x28_1_x29_" transform="translate(-1.000000, 0.000000)">
		<g id="logo.svg">
			<g id="Canvas">
				<g id="logo">
					<g id="Group" transform="translate(480.136401, 64.271493)">
						<g id="g">
							<g id="path" transform="translate(0.000000, 58.875566)">
								<g id="path0-fill">
									<g id="path0_fill-link" transform="translate(0.087603, 0.140294)">
										<path id="path0_fill" class="st0" d="M53.3,169.8c0,48.7-3.7,64.7-13.6,76.4c-10.8,10-25,15.5-39.7,15.5l3.7,29
											c22.8,0.3,44.8-7.9,61.9-23.1c17.8-18.5,24-44.1,24-83.3V0H53.3v170.1L53.3,169.8L53.3,169.8z"/>
									</g>
								</g>
							</g>
							<g id="path_1_" transform="translate(155.045296, 56.837104)">
								<g id="path1-fill">
									<g id="path1_fill-link" transform="translate(1.562453, 1.799842)">
										<path id="path1_fill" class="st0" d="M168.2,148c0,21,0,39.5,1.7,55.4H138l-2.1-33.3h-0.8c-6.7,11.6-16.4,21.3-28,27.9
											c-11.6,6.6-24.8,10-38.2,9.8c-31.4,0-69-17.7-69-89V0h36.4v112.7c0,38.7,11.6,64.7,44.6,64.7c10.3-0.2,20.4-3.5,28.9-9.4
											c8.5-5.9,15.1-14.3,18.9-23.9c2.2-6.1,3.3-12.5,3.3-18.9V0.2h36.4V148H168.2L168.2,148z"/>
									</g>
								</g>
							</g>
							<g id="path_2_" transform="translate(390.013322, 53.479638)">
								<g id="path2-fill">
									<g id="path2_fill-link" transform="translate(1.706458, 0.231425)">
										<path id="path2_fill" class="st0" d="M1.7,71.4c0-26-0.8-47-1.7-66.7h32.7l1.7,34.8h0.8c7.1-12.5,17.5-22.8,30.1-29.7
											c12.5-7,26.7-10.3,41-9.8c48.3,0,84.7,41.7,84.7,103.3c0,73.1-43.7,109.2-91,109.2c-12.1,0.5-24.2-2.2-35-7.8
											c-10.8-5.6-19.9-13.9-26.6-24.2h-0.8V291h-36v-220L1.7,71.4L1.7,71.4z M37.6,125.6c0.1,5.1,0.6,10.1,1.7,15.1
											c3,12.3,9.9,23.3,19.8,31.1c9.9,7.8,22.1,12.1,34.7,12.1c38.5,0,60.7-31.9,60.7-78.5c0-40.7-21.1-75.6-59.5-75.6
											c-12.9,0.4-25.3,5.1-35.3,13.4c-9.9,8.3-16.9,19.7-19.6,32.4c-1.5,4.9-2.3,10-2.5,15.1V125.6L37.6,125.6L37.6,125.6z"/>
									</g>
								</g>
							</g>
							<g id="path_3_" transform="translate(606.740726, 56.837104)">
								<g id="path3-fill">
									<g id="path3_fill-link" transform="translate(0.751226, 1.989299)">
										<path id="path3_fill" class="st0" d="M39.4,0l43.7,120.1c4.5,13.4,9.5,29.4,12.8,41.7h0.8c3.7-12.2,7.9-27.7,12.8-42.4
											L149.3,0.1h38.5L133.3,145c-26,69.7-43.7,105.4-68.6,127.2c-12.5,11.7-27.9,20-44.6,23.9l-9.1-31.1
											c11.7-3.9,22.5-10.1,31.8-18.1c13.2-11.1,23.7-25.2,30.6-41.2c1.5-2.8,2.5-5.7,2.9-8.8c-0.3-3.3-1.2-6.6-2.5-9.7L0,0.1
											h39.7L39.4,0L39.4,0z"/>
									</g>
								</g>
							</g>
							<g id="path_4_" transform="translate(822.748104, 0.000000)">
								<g id="path4-fill">
									<g id="path4_fill-link" transform="translate(1.464050, 0.378914)">
										<path id="path4_fill" class="st0" d="M66.6,0v58.3h52v28.2h-52V196c0,25,7,39.5,27.3,39.5c7.1,0.1,14.2-0.7,21.1-2.5
											l1.7,27.7c-10.3,3.7-21.3,5.4-32.2,5c-7.3,0.4-14.6-0.7-21.3-3.4c-6.8-2.7-12.9-6.8-17.9-12.1
											c-10.3-10.9-14.1-29-14.1-52.9V86.5H0V58.3h31V9.6L66.6,0L66.6,0z"/>
									</g>
								</g>
							</g>
							<g id="path_5_" transform="translate(974.433286, 53.479638)">
								<g id="path5-fill">
									<g id="path5_fill-link" transform="translate(0.990034, 0.610339)">
										<path id="path5_fill" class="st0" d="M34.4,113c0.8,50,32.2,70.6,68.6,70.6c19,0.6,37.9-3,55.3-10.5l6.2,26.4
											c-20.9,8.9-43.5,13.1-66.2,12.6C36.8,212.1,0,170.9,0,109.6C0,48.2,35.6,0,93.8,0c65.2,0,82.7,58.3,82.7,95.7
											c-0.1,5.8-0.5,11.5-1.2,17.2H34.6H34.4L34.4,113z M141,86.6c0.4-23.5-9.5-60.1-50.4-60.1c-36.8,0-52.8,34.4-55.7,60.1H141
											L141,86.6L141,86.6z"/>
									</g>
								</g>
							</g>
							<g id="path_6_" transform="translate(1201.961058, 53.479638)">
								<g id="path6-fill">
									<g id="path6_fill-link" transform="translate(1.179640, 0.705068)">
										<path id="path6_fill" class="st0" d="M1.7,68C1.7,44.1,1.2,23.5,0,4.6h31.8l1.2,39.9h1.7C43.8,17.2,65.7,0,90.1,0
											c3.5-0.1,7,0.4,10.3,1.2v34.8c-4.1-0.9-8.2-1.3-12.4-1.2c-25.6,0-43.7,19.7-48.7,47.4c-1,5.7-1.6,11.5-1.7,17.2v108.3h-36
											V68L1.7,68z"/>
									</g>
								</g>
							</g>
						</g>
					</g>
					<g id="g_1_">
						<g id="path_7_" transform="translate(293.890039, 0.000000)">
							<g id="path7-fill">
								<g id="path7_fill-link" transform="translate(0.804027, 0.898122)">
									<path id="path7_fill" class="st0" d="M55.9,26.9c0.2,5.6-1.2,11.1-4,15.8c-2.9,4.8-7.1,8.6-12.1,10.9
										c-5,2.4-10.6,3.2-16.1,2.3c-5.5-0.9-10.6-3.3-14.6-7.1C5,45.2,2.1,40.3,0.8,34.8c-1.3-5.4-1-11.1,0.9-16.3
										C3.6,13.3,7,8.7,11.4,5.4c4.5-3.3,9.8-5.2,15.3-5.4c7.4-0.3,14.6,2.3,20.1,7.4C52.3,12.5,55.6,19.5,55.9,26.9L55.9,26.9z"
										/>
								</g>
							</g>
						</g>
						<g id="path_8_" transform="translate(13.560463, 290.300905)">
							<g id="path8-fill">
								<g id="path8_fill-link" transform="translate(0.895231, 1.129548)">
									<path id="path8_fill" class="st1" d="M173.2,67.6C98.7,67.6,33.7,40.3,0,0c12.6,36.2,36,67.5,67,89.7
										c31,22.2,68.1,34.1,106.2,34.1s75.2-11.9,106.2-34.1c31-22.2,54.4-53.5,67-89.7C312.6,40.3,247.6,67.6,173.2,67.6
										L173.2,67.6z"/>
								</g>
							</g>
						</g>
						<g id="path_9_" transform="translate(13.560463, 39.929864)">
							<g id="path9-fill">
								<g id="path9_fill-link" transform="translate(0.800427, 0.470045)">
									<path id="path9_fill" class="st1" d="M173.2,56.3c74.4,0,139.4,27.2,173.2,67.6c-12.6-36.2-36-67.5-67-89.7
										C248.3,11.9,211.2,0,173.2,0S98,11.9,67,34.1C36,56.3,12.6,87.7,0,123.8C33.8,83.6,98.8,56.3,173.2,56.3L173.2,56.3z"/>
								</g>
							</g>
						</g>
						<g id="path_10_" transform="translate(13.560463, 401.936652)">
							<g id="path10-fill">
								<g id="path10_fill-link" transform="translate(1.464050, 1.557624)">
									<path id="path10_fill" class="st0" d="M70.4,33.9c0.3,7-1.5,14-5.1,20s-8.9,10.8-15.2,13.8c-6.3,3-13.4,4-20.3,2.9
										c-6.9-1.1-13.3-4.2-18.4-8.9C6.3,56.9,2.6,50.7,1,43.9c-1.6-6.8-1.2-14,1.2-20.6C4.5,16.7,8.8,11,14.5,6.8
										C20.1,2.7,26.8,0.3,33.8,0c9.3-0.4,18.4,3,25.3,9.3C65.9,15.7,70,24.6,70.4,33.9L70.4,33.9L70.4,33.9z"/>
								</g>
							</g>
						</g>
						<g id="path_11_" transform="translate(0.000000, 45.325792)">
							<g id="path11-fill">
								<g id="path11_fill-link" transform="translate(1.372847, 0.568371)">
									<path id="path11_fill" class="st0" d="M21.6,41.6c-4.1,0.2-8.1-0.9-11.6-3c-3.5-2.1-6.3-5.3-8-9c-1.7-3.7-2.3-7.9-1.7-12
										c0.6-4.1,2.4-7.9,5.2-10.9c2.8-3,6.4-5.2,10.3-6.1s8.1-0.7,12,0.7c3.8,1.4,7.2,4,9.6,7.3c2.4,3.3,3.8,7.3,4,11.4
										c0.2,5.5-1.7,10.9-5.4,15C32.2,39,27,41.4,21.6,41.6L21.6,41.6L21.6,41.6z"/>
								</g>
							</g>
						</g>
					</g>
				</g>
			</g>
		</g>
		<path id="jupyterlab" class="st1" d="M1832.5,326.2h37V28h-37V326.2z M2085,326.2c-2.5-13.9-3.4-31.1-3.4-48.7v-76
			c0-40.7-15.1-83.1-77.3-83.1c-25.6,0-50,7.1-66.8,18.1l8.4,24.4c14.3-9.2,34-15.1,53-15.1c41.6,0,46.2,30.2,46.2,47v4.2
			c-78.6-0.4-122.3,26.5-122.3,75.6c0,29.4,21,58.4,62.2,58.4c29,0,50.9-14.3,62.2-30.2h1.3l2.9,25.6H2085z M2046,257.7
			c0,3.8-0.8,8-2.1,11.8c-5.9,17.2-22.7,34-49.2,34c-18.9,0-34.9-11.3-34.9-35.3c0-39.5,45.8-46.6,86.2-45.8V257.7z M2178.8,326.2
			l1.7-33.6h1.3c15.1,26.9,38.7,38.2,68.1,38.2c45.4,0,91.2-36.1,91.2-108.8c0.4-61.7-35.3-103.7-85.7-103.7
			c-32.8,0-56.3,14.7-69.3,37.4h-0.8V28h-36.6v245.7c0,18.1-0.8,38.6-1.7,52.5H2178.8z M2185.1,208.2c0-5.9,1.3-10.9,2.1-15.1
			c7.6-28.1,31.1-45.4,56.3-45.4c39.5,0,60.5,34.9,60.5,75.6c0,46.6-23.1,78.1-61.8,78.1c-26.9,0-48.3-17.6-55.5-43.3
			c-0.8-4.2-1.7-8.8-1.7-13.4V208.2z"/>
	</g>
</g>
</svg>
