<?xml version="1.0" encoding="UTF-8"?>
<svg width="62px" height="59px" viewBox="0 0 62 59" version="1.1" xmlns="http://www.w3.org/2000/svg" xmlns:xlink="http://www.w3.org/1999/xlink">
    <!-- Generator: Sketch 45.2 (43514) - http://www.bohemiancoding.com/sketch -->
    <title>access-point-network (2)</title>
    <desc>Created with Sketch.</desc>
    <defs></defs>
    <g id="Page-1" stroke="none" stroke-width="1" fill="none" fill-rule="evenodd">
        <g id="Artboard" transform="translate(-556.000000, -5741.000000)">
            <g id="Group-62" transform="translate(498.000000, 5725.000000)">
                <g id="access-point-network-(2)" transform="translate(43.000000, 0.000000)">
                    <rect id="Rectangle-39" x="0.75" y="0" width="91" height="91"></rect>
                    <path d="M24.584916,16.2812482 C19.0384094,21.8277548 15.6063169,29.4886756 15.6063169,37.9463321 C15.6063169,46.4039887 19.0384094,54.0649094 24.584916,59.6114161 L28.9056754,55.2906568 C24.4623413,50.8779664 21.7350535,44.7492298 21.7350535,37.9463321 C21.7350535,31.1740781 24.4623413,25.0146978 28.9056754,20.6020075 L24.584916,16.2812482 L24.584916,16.2812482 Z M67.915084,16.2812482 L63.5943246,20.6020075 C68.0376587,25.0146978 70.7649465,31.1740781 70.7649465,37.9463321 C70.7649465,44.7492298 68.0376587,50.8779664 63.5943246,55.2906568 L67.915084,59.6114161 C73.4615906,54.0649094 76.8936831,46.4039887 76.8936831,37.9463321 C76.8936831,29.4886756 73.4615906,21.8277548 67.915084,16.2812482 L67.915084,16.2812482 Z M33.2570784,24.9534105 C29.9169169,28.2935719 27.8637901,32.8901244 27.8637901,37.9463321 C27.8637901,43.0025398 29.9169169,47.5990923 33.2570784,50.9392538 L37.5778377,46.6184944 C35.3714925,44.4121492 33.9925268,41.3477809 33.9925268,37.9463321 C33.9925268,34.5448833 35.3714925,31.480515 37.5778377,29.2741698 L33.2570784,24.9534105 L33.2570784,24.9534105 Z M59.2429216,24.9534105 L54.9221623,29.2741698 C57.1285075,31.480515 58.5074732,34.5448833 58.5074732,37.9463321 C58.5074732,41.3477809 57.1285075,44.4121492 54.9221623,46.6184944 L59.2429216,50.9392538 C62.5830831,47.5990923 64.6362099,43.0025398 64.6362099,37.9463321 C64.6362099,32.8901244 62.5830831,28.2935719 59.2429216,24.9534105 L59.2429216,24.9534105 Z M46.25,31.8175955 C42.8651922,31.8175955 40.1212634,34.5615243 40.1212634,37.9463321 C40.1212634,41.3311399 42.8651922,44.0750687 46.25,44.0750687 C49.6348078,44.0750687 52.3787366,41.3311399 52.3787366,37.9463321 C52.3787366,34.5615243 49.6348078,31.8175955 46.25,31.8175955 L46.25,31.8175955 Z M43.1856317,50.2038054 L43.1856317,62.4612786 L40.1212634,62.4612786 C38.4288595,62.4612786 37.0568951,63.833243 37.0568951,65.5256469 L15.6063169,65.5256469 L15.6063169,71.6543835 L37.0568951,71.6543835 C37.0568951,73.3467874 38.4288595,74.7187518 40.1212634,74.7187518 L52.3787366,74.7187518 C54.0711405,74.7187518 55.4431049,73.3467874 55.4431049,71.6543835 L76.8936831,71.6543835 L76.8936831,65.5256469 L55.4431049,65.5256469 C55.4431049,63.833243 54.0711405,62.4612786 52.3787366,62.4612786 L49.3143683,62.4612786 L49.3143683,50.2038054 L43.1856317,50.2038054 Z" id="Shape" fill="#424242" fill-rule="nonzero"></path>
                </g>
            </g>
        </g>
    </g>
</svg>