<?xml version="1.0" encoding="UTF-8"?>
<svg width="438px" height="337px" viewBox="0 0 438 337" version="1.1" xmlns="http://www.w3.org/2000/svg" xmlns:xlink="http://www.w3.org/1999/xlink">
    <!-- Generator: Sketch 46 (44423) - http://www.bohemiancoding.com/sketch -->
    <title>Real time image</title>
    <desc>Created with Sketch.</desc>
    <defs>
        <rect id="path-1" x="0" y="0" width="417" height="336"></rect>
        <linearGradient x1="50%" y1="0%" x2="50%" y2="100%" id="linearGradient-3">
            <stop stop-color="#FFFFFF" offset="0%"></stop>
            <stop stop-color="#FFFFFF" stop-opacity="0" offset="100%"></stop>
        </linearGradient>
        <rect id="path-4" x="8.65383155" y="12.5" width="400" height="326"></rect>
        <filter x="-2.0%" y="-2.1%" width="104.0%" height="104.9%" filterUnits="objectBoundingBox" id="filter-5">
            <feMorphology radius="0.5" operator="dilate" in="SourceAlpha" result="shadowSpreadOuter1"></feMorphology>
            <feOffset dx="0" dy="1" in="shadowSpreadOuter1" result="shadowOffsetOuter1"></feOffset>
            <feGaussianBlur stdDeviation="2" in="shadowOffsetOuter1" result="shadowBlurOuter1"></feGaussianBlur>
            <feComposite in="shadowBlurOuter1" in2="SourceAlpha" operator="out" result="shadowBlurOuter1"></feComposite>
            <feColorMatrix values="0 0 0 0 0   0 0 0 0 0   0 0 0 0 0  0 0 0 0.2 0" type="matrix" in="shadowBlurOuter1"></feColorMatrix>
        </filter>
        <linearGradient x1="50%" y1="0%" x2="50%" y2="89.0122768%" id="linearGradient-6">
            <stop stop-color="#FFFFFF" stop-opacity="0" offset="0%"></stop>
            <stop stop-color="#FFFFFF" offset="100%"></stop>
        </linearGradient>
        <rect id="path-7" x="69.6538315" y="5.5" width="291" height="30"></rect>
        <filter x="-0.6%" y="-5.8%" width="101.2%" height="111.7%" filterUnits="objectBoundingBox" id="filter-8">
            <feGaussianBlur stdDeviation="1" in="SourceAlpha" result="shadowBlurInner1"></feGaussianBlur>
            <feOffset dx="0" dy="0" in="shadowBlurInner1" result="shadowOffsetInner1"></feOffset>
            <feComposite in="shadowOffsetInner1" in2="SourceAlpha" operator="arithmetic" k2="-1" k3="1" result="shadowInnerInner1"></feComposite>
            <feColorMatrix values="0 0 0 0 0.392156863   0 0 0 0 0.709803922   0 0 0 0 0.964705882  0 0 0 1 0" type="matrix" in="shadowInnerInner1"></feColorMatrix>
        </filter>
    </defs>
    <g id="Page-1" stroke="none" stroke-width="1" fill="none" fill-rule="evenodd">
        <g id="Artboard" transform="translate(-179.000000, -4273.000000)">
            <g id="Group-52" transform="translate(-49.653832, 0.000000)">
                <g id="Real-time-collaboration-content" transform="translate(228.000000, 4257.000000)">
                    <g id="Work-in-real-time-tab-content" transform="translate(1.000000, 16.500000)">
                        <g id="Real-time-image">
                            <g id="Paper">
                                <mask id="mask-2" fill="white">
                                    <use xlink:href="#path-1"></use>
                                </mask>
                                <use id="Notebook-Mask" fill="#FFFFFF" xlink:href="#path-1"></use>
                                <g id="Notebook-paper" mask="url(#mask-2)">
                                    <use fill="black" fill-opacity="1" filter="url(#filter-5)" xlink:href="#path-4"></use>
                                    <use fill="url(#linearGradient-3)" fill-rule="evenodd" xlink:href="#path-4"></use>
                                    <rect stroke="#BDBDBD" stroke-width="1" x="9.15383155" y="13" width="399" height="325"></rect>
                                </g>
                                <g id="Paper-gradient" mask="url(#mask-2)" fill="url(#linearGradient-6)">
                                    <g transform="translate(-11.000000, 301.000000)" id="Rectangle-43">
                                        <rect x="0" y="0" width="28" height="35"></rect>
                                        <rect x="410" y="0" width="27" height="35"></rect>
                                    </g>
                                </g>
                            </g>
                            <g id="Cell-output" transform="translate(128.653832, 153.500000)" fill="#BB4430">
                                <g id="Output-graph">
                                    <rect id="Rectangle-41" x="0" y="26" width="10" height="88" rx="5"></rect>
                                    <rect id="Rectangle-41" x="199" y="41" width="10" height="64" rx="5"></rect>
                                    <rect id="Rectangle-41" x="219" y="35" width="10" height="48" rx="5"></rect>
                                    <rect id="Rectangle-41" x="120" y="26" width="10" height="68" rx="5"></rect>
                                    <rect id="Rectangle-41" x="180" y="54" width="10" height="63" rx="5"></rect>
                                    <rect id="Rectangle-41" x="140" y="5" width="10" height="73" rx="5"></rect>
                                    <rect id="Rectangle-41" x="80" y="55" width="10" height="41" rx="5"></rect>
                                    <rect id="Rectangle-41" x="80" y="6" width="10" height="41" rx="5"></rect>
                                    <rect id="Rectangle-41" x="40" y="50" width="10" height="81" rx="5"></rect>
                                    <rect id="Rectangle-41" x="60" y="0" width="10" height="81" rx="5"></rect>
                                    <rect id="Rectangle-41" x="20" y="20" width="10" height="69" rx="5"></rect>
                                    <rect id="Rectangle-41" x="100" y="20" width="10" height="69" rx="5"></rect>
                                    <rect id="Rectangle-41" x="20" y="2" width="10" height="10" rx="5"></rect>
                                    <rect id="Rectangle-41" x="80" y="104" width="10" height="10" rx="5"></rect>
                                    <rect id="Rectangle-41" x="120" y="8" width="10" height="10" rx="5"></rect>
                                    <rect id="Rectangle-41" x="180" y="36" width="10" height="10" rx="5"></rect>
                                    <rect id="Rectangle-41" x="60" y="89" width="10" height="10" rx="5"></rect>
                                    <rect id="Rectangle-41" x="160" y="23" width="10" height="81" rx="5"></rect>
                                    <rect id="Rectangle-41" x="160" y="112" width="10" height="10" rx="5"></rect>
                                    <rect id="Rectangle-41" x="219" y="17" width="10" height="10" rx="5"></rect>
                                    <rect id="Rectangle-41" x="20" y="97" width="10" height="10" rx="5"></rect>
                                    <rect id="Rectangle-41" x="20" y="115" width="10" height="10" rx="5"></rect>
                                </g>
                            </g>
                            <g id="Cell" transform="translate(54.000000, 92.000000)">
                                <path d="M4.56469727,10.4558105 L2.94604492,10.4558105 L2.94604492,25.6425781 L4.56469727,25.6425781 L4.56469727,27.6896973 L0.30859375,27.6896973 L0.30859375,8.40869141 L4.56469727,8.40869141 L4.56469727,10.4558105 Z M18.6088867,24.5 L9.15405273,24.5 L9.15405273,22.690918 L13.6386719,17.8730469 C13.9877947,17.4921856 14.2829578,17.1462418 14.5241699,16.8352051 C14.7653821,16.5241684 14.9605705,16.2401136 15.1097412,15.9830322 C15.2589119,15.7259509 15.366821,15.4863292 15.4334717,15.2641602 C15.5001224,15.0419911 15.5334473,14.8261729 15.5334473,14.6166992 C15.5334473,14.3056625 15.4890141,14.0295422 15.4001465,13.7883301 C15.3112789,13.5471179 15.1859139,13.3424081 15.0240479,13.1741943 C14.8621818,13.0059806 14.6685802,12.8774419 14.4432373,12.7885742 C14.2178944,12.6997066 13.9687514,12.6552734 13.6958008,12.6552734 C12.9658167,12.6552734 12.4215106,12.8583964 12.0628662,13.2646484 C11.7042218,13.6709005 11.5249023,14.23901 11.5249023,14.9689941 L8.8684082,14.9689941 C8.8684082,14.3532684 8.98583867,13.7708768 9.22070313,13.2218018 C9.45556758,12.6727267 9.7872293,12.1918966 10.2156982,11.7792969 C10.6441672,11.3666972 11.161496,11.041383 11.7677002,10.8033447 C12.3739044,10.5653064 13.0451623,10.4462891 13.7814941,10.4462891 C14.4860875,10.4462891 15.1097385,10.5446768 15.6524658,10.7414551 C16.1951931,10.9382334 16.649046,11.2143537 17.0140381,11.5698242 C17.3790301,11.9252947 17.6567373,12.3521704 17.847168,12.8504639 C18.0375986,13.3487574 18.1328125,13.899411 18.1328125,14.5024414 C18.1328125,14.9594749 18.0614021,15.3958719 17.9185791,15.8116455 C17.7757561,16.2274191 17.5726332,16.6384257 17.3092041,17.0446777 C17.0457751,17.4509298 16.7299823,17.8651102 16.3618164,18.2872314 C15.9936505,18.7093527 15.5842308,19.1520973 15.1335449,19.6154785 L12.5246582,22.376709 L18.6088867,22.376709 L18.6088867,24.5 Z M23.7124023,8.40869141 L27.9780273,8.40869141 L27.9780273,27.6896973 L23.7124023,27.6896973 L23.7124023,25.6425781 L25.3405762,25.6425781 L25.3405762,10.4558105 L23.7124023,10.4558105 L23.7124023,8.40869141 Z" id="[2]" fill="#9E9E9E"></path>
                                <rect id="Cell-Inactive" stroke="#BDBDBD" stroke-width="1.5" fill="#FAFAFA" x="43.6538315" y="0.5" width="291" height="33"></rect>
                                <path d="M63.146019,18.3671875 C63.146019,18.9713572 63.0731031,19.5351536 62.927269,20.0585938 C62.781435,20.5820339 62.5678955,21.0364564 62.286644,21.421875 C62.0053926,21.8072936 61.6577399,22.1093739 61.2436753,22.328125 C60.8296107,22.5468761 60.3569592,22.65625 59.8257065,22.65625 C59.310079,22.65625 58.8556564,22.5729175 58.4624253,22.40625 C58.0691942,22.2395825 57.731958,22.0000016 57.4507065,21.6875 L57.4507065,25.75 L56.005394,25.75 L56.005394,14.046875 L57.3257065,14.046875 L57.396019,14.96875 C57.6772705,14.6197899 58.0171108,14.3528655 58.4155503,14.1679688 C58.8139898,13.983072 59.2762247,13.890625 59.802269,13.890625 C60.3439384,13.890625 60.8231003,13.9973948 61.239769,14.2109375 C61.6564378,14.4244802 62.0053926,14.7213523 62.286644,15.1015625 C62.5678955,15.4817727 62.781435,15.9361953 62.927269,16.4648438 C63.0731031,16.9934922 63.146019,17.5729135 63.146019,18.203125 L63.146019,18.3671875 Z M61.7007065,18.203125 C61.7007065,17.7916646 61.6551341,17.3997414 61.5639878,17.0273438 C61.4728415,16.6549461 61.3322179,16.3268243 61.1421128,16.0429688 C60.9520077,15.7591132 60.7111247,15.533855 60.4194565,15.3671875 C60.1277884,15.20052 59.7788336,15.1171875 59.3725815,15.1171875 C58.9090376,15.1171875 58.5197185,15.2252593 58.2046128,15.4414062 C57.8895071,15.6575532 57.6382075,15.9348941 57.4507065,16.2734375 L57.4507065,20.34375 C57.6382075,20.677085 57.888205,20.9492177 58.2007065,21.1601562 C58.5132081,21.3710948 58.9090375,21.4765625 59.3882065,21.4765625 C59.7892502,21.4765625 60.1356009,21.3919279 60.427269,21.2226562 C60.7189372,21.0533846 60.9585181,20.8255223 61.146019,20.5390625 C61.33352,20.2526027 61.4728415,19.9218769 61.5639878,19.546875 C61.6551341,19.1718731 61.7007065,18.7786479 61.7007065,18.3671875 L61.7007065,18.203125 Z M65.8413315,10.5 L70.161644,10.5 L70.161644,21.25 L72.9194565,21.25 L72.9194565,22.5 L65.8413315,22.5 L65.8413315,21.25 L68.7163315,21.25 L68.7163315,11.7578125 L65.8413315,11.7578125 L65.8413315,10.5 Z M78.6382065,12 L78.6382065,14.046875 L81.8569565,14.046875 L81.8569565,15.1640625 L78.6382065,15.1640625 L78.6382065,19.7578125 C78.6382065,20.0859391 78.6798728,20.3567698 78.7632065,20.5703125 C78.8465403,20.7838552 78.9611225,20.9544264 79.1069565,21.0820312 C79.2527906,21.2096361 79.4207577,21.2994789 79.6108628,21.3515625 C79.8009679,21.4036461 80.0027888,21.4296875 80.2163315,21.4296875 C80.3725823,21.4296875 80.534039,21.420573 80.7007065,21.4023438 C80.867374,21.3841145 81.0301328,21.3619793 81.1889878,21.3359375 C81.3478428,21.3098957 81.4962788,21.2825522 81.6343003,21.2539062 C81.7723218,21.2252603 81.8856019,21.2005209 81.974144,21.1796875 L82.177269,22.203125 C82.0574768,22.276042 81.9116449,22.3398435 81.739769,22.3945312 C81.5678932,22.449219 81.3803951,22.4960936 81.177269,22.5351562 C80.974143,22.5742189 80.7593014,22.6041666 80.5327378,22.625 C80.3061742,22.6458334 80.080916,22.65625 79.8569565,22.65625 C79.4819547,22.65625 79.1316978,22.6028651 78.8061753,22.4960938 C78.4806528,22.3893224 78.1981036,22.2200532 77.958519,21.9882812 C77.7189345,21.7565093 77.5301343,21.4570331 77.3921128,21.0898438 C77.2540913,20.7226544 77.1850815,20.2786484 77.1850815,19.7578125 L77.1850815,15.1640625 L74.9663315,15.1640625 L74.9663315,14.046875 L77.1850815,14.046875 L77.1850815,12 L78.6382065,12 Z M87.333519,21.5625 C87.333519,21.4062492 87.3582584,21.2604173 87.4077378,21.125 C87.4572172,20.9895827 87.5288311,20.8710943 87.6225815,20.7695312 C87.716332,20.6679682 87.8335183,20.588542 87.974144,20.53125 C88.1147697,20.473958 88.2788306,20.4453125 88.4663315,20.4453125 C88.6538325,20.4453125 88.8191954,20.473958 88.9624253,20.53125 C89.1056552,20.588542 89.2254456,20.6679682 89.3218003,20.7695312 C89.4181549,20.8710943 89.4910709,20.9895827 89.5405503,21.125 C89.5900297,21.2604173 89.614769,21.4062492 89.614769,21.5625 C89.614769,21.7135424 89.5900297,21.8554681 89.5405503,21.9882812 C89.4910709,22.1210944 89.4181549,22.2369787 89.3218003,22.3359375 C89.2254456,22.4348963 89.1056552,22.5117185 88.9624253,22.5664062 C88.8191954,22.621094 88.6538325,22.6484375 88.4663315,22.6484375 C88.2788306,22.6484375 88.1147697,22.621094 87.974144,22.5664062 C87.8335183,22.5117185 87.716332,22.4348963 87.6225815,22.3359375 C87.5288311,22.2369787 87.4572172,22.1210944 87.4077378,21.9882812 C87.3582584,21.8554681 87.333519,21.7135424 87.333519,21.5625 Z M100.036644,20.2578125 C100.036644,20.0859366 100.00279,19.9309903 99.9350815,19.7929688 C99.8673729,19.6549472 99.7527907,19.5286464 99.5913315,19.4140625 C99.4298724,19.2994786 99.2163329,19.1940109 98.9507065,19.0976562 C98.6850802,19.0013016 98.3543544,18.9140629 97.958519,18.8359375 C97.4741416,18.7369787 97.0327398,18.6171882 96.6343003,18.4765625 C96.2358608,18.3359368 95.8947184,18.1679697 95.6108628,17.9726562 C95.3270072,17.7773428 95.1069573,17.5481784 94.9507065,17.2851562 C94.7944558,17.0221341 94.7163315,16.7161476 94.7163315,16.3671875 C94.7163315,16.0234358 94.7970599,15.7018244 94.958519,15.4023438 C95.1199782,15.1028631 95.3465384,14.841147 95.6382065,14.6171875 C95.9298747,14.393228 96.2775274,14.2161465 96.6811753,14.0859375 C97.0848231,13.9557285 97.5288291,13.890625 98.0132065,13.890625 C98.5340425,13.890625 99.0027878,13.9583327 99.4194565,14.09375 C99.8361253,14.2291673 100.190288,14.4166655 100.481957,14.65625 C100.773625,14.8958345 100.998883,15.1757796 101.157738,15.4960938 C101.316593,15.8164079 101.396019,16.1614565 101.396019,16.53125 L99.9507065,16.53125 C99.9507065,16.3489574 99.903832,16.1705738 99.8100815,15.9960938 C99.7163311,15.8216137 99.586124,15.6666673 99.4194565,15.53125 C99.252789,15.3958327 99.0509681,15.2864588 98.8139878,15.203125 C98.5770074,15.1197913 98.310083,15.078125 98.0132065,15.078125 C97.7059133,15.078125 97.4363848,15.1119788 97.2046128,15.1796875 C96.9728408,15.2473962 96.7801344,15.3385411 96.6264878,15.453125 C96.4728412,15.5677089 96.3569569,15.7005201 96.2788315,15.8515625 C96.2007062,16.0026049 96.161644,16.1588534 96.161644,16.3203125 C96.161644,16.48698 96.1928937,16.635416 96.255394,16.765625 C96.3178944,16.895834 96.4259662,17.0130203 96.5796128,17.1171875 C96.7332594,17.2213547 96.9389865,17.3151037 97.1968003,17.3984375 C97.4546141,17.4817713 97.7814337,17.5624996 98.177269,17.640625 C98.698105,17.7500005 99.1642462,17.8763014 99.5757065,18.0195312 C99.9871669,18.1627611 100.333518,18.3346344 100.614769,18.5351562 C100.89602,18.7356781 101.110862,18.9687487 101.2593,19.234375 C101.407739,19.5000013 101.481957,19.8072899 101.481957,20.15625 C101.481957,20.5312519 101.397322,20.8723943 101.22805,21.1796875 C101.058779,21.4869807 100.823104,21.7499989 100.521019,21.96875 C100.218934,22.1875011 99.8569587,22.3567702 99.4350815,22.4765625 C99.0132044,22.5963548 98.5522715,22.65625 98.052269,22.65625 C97.4793495,22.65625 96.968938,22.5794279 96.521019,22.4257812 C96.0731001,22.2721346 95.6941977,22.0690117 95.3843003,21.8164062 C95.0744029,21.5638008 94.8374261,21.270835 94.6733628,20.9375 C94.5092995,20.604165 94.427269,20.2578143 94.427269,19.8984375 L95.8725815,19.8984375 C95.893415,20.195314 95.9728413,20.4453115 96.1108628,20.6484375 C96.2488843,20.8515635 96.4207576,21.0156244 96.6264878,21.140625 C96.832218,21.2656256 97.0600803,21.3541664 97.3100815,21.40625 C97.5600828,21.4583336 97.8074762,21.484375 98.052269,21.484375 C98.6616471,21.484375 99.1434131,21.372397 99.4975815,21.1484375 C99.85175,20.924478 100.031436,20.627606 100.036644,20.2578125 Z M107.622582,21.484375 C107.883,21.484375 108.136903,21.4427088 108.3843,21.359375 C108.631697,21.2760412 108.851747,21.160157 109.044457,21.0117188 C109.237166,20.8632805 109.392112,20.6888031 109.5093,20.4882812 C109.626488,20.2877594 109.687686,20.0703137 109.692894,19.8359375 L111.060082,19.8359375 C111.054873,20.2109394 110.957218,20.5690087 110.767113,20.9101562 C110.577008,21.2513038 110.323104,21.55078 110.005394,21.8085938 C109.687684,22.0664075 109.323104,22.2721346 108.911644,22.4257812 C108.500184,22.5794279 108.0705,22.65625 107.622582,22.65625 C106.981953,22.65625 106.422063,22.5416678 105.942894,22.3125 C105.463725,22.0833322 105.063989,21.7747415 104.743675,21.3867188 C104.423361,20.998696 104.182478,20.5507838 104.021019,20.0429688 C103.85956,19.5351537 103.778832,19.0000028 103.778832,18.4375 L103.778832,18.109375 C103.778832,17.5520805 103.85956,17.0182317 104.021019,16.5078125 C104.182478,15.9973933 104.423361,15.548179 104.743675,15.1601562 C105.063989,14.7721335 105.463725,14.4635428 105.942894,14.234375 C106.422063,14.0052072 106.981953,13.890625 107.622582,13.890625 C108.122584,13.890625 108.582215,13.9700513 109.001488,14.1289062 C109.420761,14.2877612 109.782736,14.5039049 110.087425,14.7773438 C110.392114,15.0507826 110.630393,15.3749981 110.802269,15.75 C110.974145,16.1250019 111.060082,16.5260395 111.060082,16.953125 L109.692894,16.953125 C109.687686,16.6979154 109.631697,16.4570324 109.524925,16.2304688 C109.418154,16.0039051 109.273624,15.8046884 109.091332,15.6328125 C108.909039,15.4609366 108.691593,15.3255213 108.438988,15.2265625 C108.186382,15.1276037 107.91425,15.078125 107.622582,15.078125 C107.174663,15.078125 106.798364,15.1679679 106.493675,15.3476562 C106.188986,15.5273446 105.942895,15.7617173 105.755394,16.0507812 C105.567893,16.3398452 105.43378,16.6640607 105.35305,17.0234375 C105.272321,17.3828143 105.231957,17.7447898 105.231957,18.109375 L105.231957,18.4375 C105.231957,18.8072935 105.272321,19.1731753 105.35305,19.5351562 C105.43378,19.8971372 105.566591,20.2226548 105.751488,20.5117188 C105.936385,20.8007827 106.181174,21.0351554 106.485863,21.2148438 C106.790552,21.3945321 107.169454,21.484375 107.622582,21.484375 Z M119.177269,22.5 C119.119977,22.3906245 119.074405,22.2539071 119.04055,22.0898438 C119.006696,21.9257804 118.981957,21.7552092 118.966332,21.578125 C118.820497,21.7239591 118.657739,21.8619785 118.47805,21.9921875 C118.298362,22.1223965 118.100447,22.2369787 117.8843,22.3359375 C117.668153,22.4348963 117.437687,22.5130205 117.192894,22.5703125 C116.948101,22.6276045 116.687687,22.65625 116.411644,22.65625 C115.963725,22.65625 115.558781,22.5911465 115.1968,22.4609375 C114.834819,22.3307285 114.527531,22.154949 114.274925,21.9335938 C114.02232,21.7122385 113.827009,21.4492203 113.688988,21.1445312 C113.550966,20.8398422 113.481957,20.5104184 113.481957,20.15625 C113.481957,19.692706 113.574404,19.2864601 113.7593,18.9375 C113.944197,18.5885399 114.205913,18.2981782 114.544457,18.0664062 C114.883,17.8346343 115.290548,17.6614589 115.767113,17.546875 C116.243678,17.4322911 116.776224,17.375 117.364769,17.375 L118.942894,17.375 L118.942894,16.7109375 C118.942894,16.4557279 118.89602,16.2265635 118.802269,16.0234375 C118.708519,15.8203115 118.575707,15.6471361 118.403832,15.5039062 C118.231956,15.3606764 118.022322,15.2500004 117.774925,15.171875 C117.527528,15.0937496 117.250187,15.0546875 116.942894,15.0546875 C116.656434,15.0546875 116.399926,15.0911455 116.173363,15.1640625 C115.946799,15.2369795 115.755395,15.3333327 115.599144,15.453125 C115.442893,15.5729173 115.321801,15.7148429 115.235863,15.8789062 C115.149925,16.0429696 115.106957,16.2135408 115.106957,16.390625 L113.653832,16.390625 C113.65904,16.0833318 113.738466,15.7812515 113.892113,15.484375 C114.045759,15.1874985 114.267111,14.9205741 114.556175,14.6835938 C114.845239,14.4466134 115.196798,14.2552091 115.610863,14.109375 C116.024927,13.9635409 116.494975,13.890625 117.021019,13.890625 C117.500188,13.890625 117.945496,13.9492182 118.356957,14.0664062 C118.768417,14.1835943 119.123882,14.3606759 119.423363,14.5976562 C119.722843,14.8346366 119.958518,15.1302066 120.130394,15.484375 C120.30227,15.8385434 120.388207,16.2526018 120.388207,16.7265625 L120.388207,20.65625 C120.388207,20.9375014 120.414248,21.2356755 120.466332,21.5507812 C120.518415,21.865887 120.591331,22.1406238 120.685082,22.375 L120.685082,22.5 L119.177269,22.5 Z M116.622582,21.3984375 C116.903833,21.3984375 117.166851,21.3619795 117.411644,21.2890625 C117.656437,21.2161455 117.879091,21.1197923 118.079613,21 C118.280135,20.8802077 118.45331,20.7434904 118.599144,20.5898438 C118.744978,20.4361971 118.85956,20.2760425 118.942894,20.109375 L118.942894,18.3984375 L117.599144,18.3984375 C116.75539,18.3984375 116.099146,18.5234362 115.630394,18.7734375 C115.161642,19.0234388 114.927269,19.416664 114.927269,19.953125 C114.927269,20.1614594 114.962425,20.3541658 115.032738,20.53125 C115.103051,20.7083342 115.208518,20.8606764 115.349144,20.9882812 C115.48977,21.1158861 115.666851,21.2161455 115.880394,21.2890625 C116.093937,21.3619795 116.34133,21.3984375 116.622582,21.3984375 Z M126.646019,12 L126.646019,14.046875 L129.864769,14.046875 L129.864769,15.1640625 L126.646019,15.1640625 L126.646019,19.7578125 C126.646019,20.0859391 126.687685,20.3567698 126.771019,20.5703125 C126.854353,20.7838552 126.968935,20.9544264 127.114769,21.0820312 C127.260603,21.2096361 127.42857,21.2994789 127.618675,21.3515625 C127.80878,21.4036461 128.010601,21.4296875 128.224144,21.4296875 C128.380395,21.4296875 128.541852,21.420573 128.708519,21.4023438 C128.875187,21.3841145 129.037945,21.3619793 129.1968,21.3359375 C129.355655,21.3098957 129.504091,21.2825522 129.642113,21.2539062 C129.780134,21.2252603 129.893414,21.2005209 129.981957,21.1796875 L130.185082,22.203125 C130.065289,22.276042 129.919457,22.3398435 129.747582,22.3945312 C129.575706,22.449219 129.388208,22.4960936 129.185082,22.5351562 C128.981956,22.5742189 128.767114,22.6041666 128.54055,22.625 C128.313987,22.6458334 128.088728,22.65625 127.864769,22.65625 C127.489767,22.65625 127.13951,22.6028651 126.813988,22.4960938 C126.488465,22.3893224 126.205916,22.2200532 125.966332,21.9882812 C125.726747,21.7565093 125.537947,21.4570331 125.399925,21.0898438 C125.261904,20.7226544 125.192894,20.2786484 125.192894,19.7578125 L125.192894,15.1640625 L122.974144,15.1640625 L122.974144,14.046875 L125.192894,14.046875 L125.192894,12 L126.646019,12 Z M136.247582,12 L136.247582,14.046875 L139.466332,14.046875 L139.466332,15.1640625 L136.247582,15.1640625 L136.247582,19.7578125 C136.247582,20.0859391 136.289248,20.3567698 136.372582,20.5703125 C136.455915,20.7838552 136.570497,20.9544264 136.716332,21.0820312 C136.862166,21.2096361 137.030133,21.2994789 137.220238,21.3515625 C137.410343,21.4036461 137.612164,21.4296875 137.825707,21.4296875 C137.981957,21.4296875 138.143414,21.420573 138.310082,21.4023438 C138.476749,21.3841145 138.639508,21.3619793 138.798363,21.3359375 C138.957218,21.3098957 139.105654,21.2825522 139.243675,21.2539062 C139.381697,21.2252603 139.494977,21.2005209 139.583519,21.1796875 L139.786644,22.203125 C139.666852,22.276042 139.52102,22.3398435 139.349144,22.3945312 C139.177268,22.449219 138.98977,22.4960936 138.786644,22.5351562 C138.583518,22.5742189 138.368676,22.6041666 138.142113,22.625 C137.915549,22.6458334 137.690291,22.65625 137.466332,22.65625 C137.09133,22.65625 136.741073,22.6028651 136.41555,22.4960938 C136.090028,22.3893224 135.807479,22.2200532 135.567894,21.9882812 C135.32831,21.7565093 135.139509,21.4570331 135.001488,21.0898438 C134.863466,20.7226544 134.794457,20.2786484 134.794457,19.7578125 L134.794457,15.1640625 L132.575707,15.1640625 L132.575707,14.046875 L134.794457,14.046875 L134.794457,12 L136.247582,12 Z M146.161644,22.65625 C145.567891,22.65625 145.022324,22.5546885 144.524925,22.3515625 C144.027527,22.1484365 143.60175,21.8645852 143.247582,21.5 C142.893413,21.1354148 142.617374,20.7031275 142.419457,20.203125 C142.221539,19.7031225 142.122582,19.1588571 142.122582,18.5703125 L142.122582,18.2421875 C142.122582,17.5598924 142.231955,16.9492214 142.450707,16.4101562 C142.669458,15.8710911 142.959819,15.4153664 143.3218,15.0429688 C143.683781,14.6705711 144.095235,14.3854177 144.556175,14.1875 C145.017115,13.9895823 145.489767,13.890625 145.974144,13.890625 C146.583522,13.890625 147.116069,13.9960927 147.5718,14.2070312 C148.027532,14.4179698 148.406434,14.7096336 148.708519,15.0820312 C149.010604,15.4544289 149.235862,15.8932266 149.3843,16.3984375 C149.532739,16.9036484 149.606957,17.4505179 149.606957,18.0390625 L149.606957,18.6875 L143.567894,18.6875 C143.583519,19.0729186 143.657737,19.4348941 143.79055,19.7734375 C143.923363,20.1119809 144.105653,20.4075508 144.337425,20.6601562 C144.569197,20.9127617 144.846538,21.1119784 145.169457,21.2578125 C145.492375,21.4036466 145.849142,21.4765625 146.239769,21.4765625 C146.755397,21.4765625 147.213725,21.3723969 147.614769,21.1640625 C148.015813,20.9557281 148.349143,20.6796892 148.614769,20.3359375 L149.497582,21.0234375 C149.356956,21.2369802 149.181176,21.4414053 148.970238,21.6367188 C148.759299,21.8320322 148.515812,22.0052076 148.239769,22.15625 C147.963726,22.3072924 147.651229,22.428385 147.302269,22.5195312 C146.953309,22.6106775 146.573104,22.65625 146.161644,22.65625 Z M145.974144,15.078125 C145.682476,15.078125 145.406437,15.1315099 145.146019,15.2382812 C144.885601,15.3450526 144.651228,15.5013011 144.442894,15.7070312 C144.23456,15.9127614 144.05878,16.1653631 143.91555,16.4648438 C143.77232,16.7643244 143.672061,17.109373 143.614769,17.5 L148.161644,17.5 L148.161644,17.390625 C148.146019,17.1093736 148.092634,16.8307305 148.001488,16.5546875 C147.910342,16.2786445 147.776228,16.0312511 147.599144,15.8125 C147.42206,15.5937489 147.199406,15.4166673 146.931175,15.28125 C146.662945,15.1458327 146.343938,15.078125 145.974144,15.078125 Z M157.567894,13.890625 C157.703311,13.890625 157.843935,13.8945312 157.989769,13.9023438 C158.135603,13.9101563 158.274925,13.923177 158.407738,13.9414062 C158.540551,13.9596355 158.662946,13.9817707 158.774925,14.0078125 C158.886905,14.0338543 158.979352,14.0624998 159.052269,14.09375 L158.856957,15.5078125 C158.575705,15.4453122 158.308781,15.3997397 158.056175,15.3710938 C157.80357,15.3424478 157.53925,15.328125 157.263207,15.328125 C156.58612,15.328125 156.037948,15.4817693 155.618675,15.7890625 C155.199402,16.0963557 154.890812,16.5260389 154.692894,17.078125 L154.692894,22.5 L153.239769,22.5 L153.239769,14.046875 L154.614769,14.046875 L154.685082,15.390625 C155.028833,14.927081 155.44159,14.5611993 155.923363,14.2929688 C156.405136,14.0247382 156.953308,13.890625 157.567894,13.890625 Z M163.060082,17.8828125 C163.060082,17.1380171 163.118675,16.4375033 163.235863,15.78125 C163.353051,15.1249967 163.510601,14.5169299 163.708519,13.9570312 C163.906437,13.3971326 164.134299,12.885419 164.392113,12.421875 C164.649927,11.958331 164.920757,11.5468768 165.204613,11.1875 C165.488468,10.8281232 165.773622,10.5208346 166.060082,10.265625 C166.346541,10.0104154 166.619976,9.80989656 166.880394,9.6640625 L167.185082,10.6171875 C166.862163,10.8619804 166.540552,11.1953104 166.220238,11.6171875 C165.899924,12.0390646 165.613468,12.5507782 165.360863,13.1523438 C165.108257,13.7539093 164.90253,14.4466107 164.743675,15.2304688 C164.58482,16.0143268 164.505394,16.8932243 164.505394,17.8671875 L164.505394,17.9765625 C164.505394,18.9505257 164.58482,19.8307252 164.743675,20.6171875 C164.90253,21.4036498 165.108257,22.0989553 165.360863,22.703125 C165.613468,23.3072947 165.899924,23.8242166 166.220238,24.2539062 C166.540552,24.6835959 166.862163,25.0286445 167.185082,25.2890625 L166.880394,26.171875 C166.619976,26.0260409 166.345239,25.8268242 166.056175,25.5742188 C165.767111,25.3216133 165.480656,25.0143247 165.1968,24.6523438 C164.912945,24.2903628 164.642114,23.8789086 164.3843,23.4179688 C164.126487,22.9570289 163.899926,22.4466174 163.704613,21.8867188 C163.509299,21.3268201 163.353051,20.7187533 163.235863,20.0625 C163.118675,19.4062467 163.060082,18.7057329 163.060082,17.9609375 L163.060082,17.8828125 Z M170.958519,18.203125 C170.958519,17.5729135 171.037945,16.9934922 171.1968,16.4648438 C171.355655,15.9361953 171.582215,15.4817727 171.876488,15.1015625 C172.17076,14.7213523 172.526225,14.4244802 172.942894,14.2109375 C173.359563,13.9973948 173.825704,13.890625 174.341332,13.890625 C174.846542,13.890625 175.287944,13.9752596 175.66555,14.1445312 C176.043156,14.3138029 176.369976,14.5598942 176.646019,14.8828125 L176.646019,10.5 L178.091332,10.5 L178.091332,22.5 L176.763207,22.5 L176.700707,21.609375 C176.419455,21.9531267 176.083521,22.2135408 175.692894,22.390625 C175.302267,22.5677092 174.846542,22.65625 174.325707,22.65625 C173.815287,22.65625 173.353052,22.5468761 172.938988,22.328125 C172.524923,22.1093739 172.172062,21.8072936 171.880394,21.421875 C171.588726,21.0364564 171.362166,20.5820339 171.200707,20.0585938 C171.039247,19.5351536 170.958519,18.9713572 170.958519,18.3671875 L170.958519,18.203125 Z M172.403832,18.3671875 C172.403832,18.7786479 172.448102,19.169269 172.536644,19.5390625 C172.625186,19.908856 172.761904,20.2343736 172.9468,20.515625 C173.131697,20.7968764 173.367372,21.0195304 173.653832,21.1835938 C173.940291,21.3476571 174.284038,21.4296875 174.685082,21.4296875 C174.929874,21.4296875 175.151226,21.401042 175.349144,21.34375 C175.547062,21.286458 175.726747,21.2044276 175.888207,21.0976562 C176.049666,20.9908849 176.192893,20.863282 176.317894,20.7148438 C176.442895,20.5664055 176.552269,20.4010426 176.646019,20.21875 L176.646019,16.296875 C176.458518,15.9531233 176.205916,15.670574 175.888207,15.4492188 C175.570497,15.2278635 175.174667,15.1171875 174.700707,15.1171875 C174.294455,15.1171875 173.946802,15.20052 173.657738,15.3671875 C173.368674,15.533855 173.131697,15.7591132 172.9468,16.0429688 C172.761904,16.3268243 172.625186,16.6549461 172.536644,17.0273438 C172.448102,17.3997414 172.403832,17.7916646 172.403832,18.203125 L172.403832,18.3671875 Z M182.989769,22.5 L182.989769,15.1640625 L180.661644,15.1640625 L180.661644,14.046875 L182.989769,14.046875 L182.989769,13.453125 C182.989769,12.9114556 183.069195,12.4362 183.22805,12.0273438 C183.386905,11.6184875 183.610861,11.276043 183.899925,11 C184.188989,10.723957 184.536642,10.5156257 184.942894,10.375 C185.349146,10.2343743 185.802267,10.1640625 186.302269,10.1640625 C186.646021,10.1640625 186.980653,10.192708 187.306175,10.25 C187.631698,10.307292 187.96633,10.3802079 188.310082,10.46875 L188.138207,11.6640625 C187.924664,11.5911455 187.675968,11.527344 187.392113,11.4726562 C187.108257,11.4179685 186.804875,11.390625 186.481957,11.390625 C185.80487,11.3958334 185.29576,11.5677066 184.954613,11.90625 C184.613465,12.2447934 184.442894,12.7604132 184.442894,13.453125 L184.442894,14.046875 L187.700707,14.046875 L187.700707,15.1640625 L184.442894,15.1640625 L184.442894,22.5 L182.989769,22.5 Z M192.130394,16.1171875 L193.161644,16.1171875 C193.526229,16.1171875 193.847841,16.0677088 194.126488,15.96875 C194.405135,15.8697912 194.639508,15.7343759 194.829613,15.5625 C195.019718,15.3906241 195.164248,15.184897 195.263207,14.9453125 C195.362165,14.705728 195.411644,14.4427098 195.411644,14.15625 C195.411644,13.4947884 195.242375,12.9960954 194.903832,12.6601562 C194.565288,12.3242171 194.070501,12.15625 193.419457,12.15625 C193.112163,12.15625 192.832218,12.2018225 192.579613,12.2929688 C192.327007,12.384115 192.110864,12.5156241 191.931175,12.6875 C191.751487,12.8593759 191.612165,13.065103 191.513207,13.3046875 C191.414248,13.544272 191.364769,13.8124985 191.364769,14.109375 L189.911644,14.109375 C189.911644,13.6770812 189.996279,13.2695332 190.16555,12.8867188 C190.334822,12.5039043 190.573101,12.1705743 190.880394,11.8867188 C191.187687,11.6028632 191.556173,11.3789071 191.985863,11.2148438 C192.415552,11.0507804 192.893412,10.96875 193.419457,10.96875 C193.929876,10.96875 194.396017,11.0377597 194.817894,11.1757812 C195.239771,11.3138028 195.601747,11.5182278 195.903832,11.7890625 C196.205916,12.0598972 196.440289,12.3958313 196.606957,12.796875 C196.773624,13.1979187 196.856957,13.6614557 196.856957,14.1875 C196.856957,14.4062511 196.823103,14.6328113 196.755394,14.8671875 C196.687685,15.1015637 196.58352,15.329426 196.442894,15.5507812 C196.302268,15.7721365 196.121281,15.9804678 195.899925,16.1757812 C195.67857,16.3710947 195.41425,16.5338535 195.106957,16.6640625 C195.47675,16.7838548 195.785341,16.9401032 196.032738,17.1328125 C196.280135,17.3255218 196.47805,17.5416655 196.626488,17.78125 C196.774926,18.0208345 196.879092,18.2734362 196.938988,18.5390625 C196.998884,18.8046888 197.028832,19.067707 197.028832,19.328125 C197.028832,19.8593777 196.937687,20.3307271 196.755394,20.7421875 C196.573101,21.1536479 196.3205,21.5013007 195.997582,21.7851562 C195.674663,22.0690118 195.293157,22.2851555 194.85305,22.4335938 C194.412944,22.582032 193.937688,22.65625 193.427269,22.65625 C192.927267,22.65625 192.457219,22.5859382 192.017113,22.4453125 C191.577006,22.3046868 191.1955,22.0989597 190.872582,21.828125 C190.549663,21.5572903 190.293155,21.2265645 190.10305,20.8359375 C189.912945,20.4453105 189.817894,20.0000025 189.817894,19.5 L191.263207,19.5 C191.263207,19.7968765 191.313987,20.0677071 191.41555,20.3125 C191.517113,20.5572929 191.661643,20.7656241 191.849144,20.9375 C192.036645,21.1093759 192.264507,21.242187 192.532738,21.3359375 C192.800968,21.429688 193.099142,21.4765625 193.427269,21.4765625 C193.755396,21.4765625 194.052268,21.4335942 194.317894,21.3476562 C194.58352,21.2617183 194.810081,21.1302092 194.997582,20.953125 C195.185082,20.7760408 195.329612,20.5559909 195.431175,20.2929688 C195.532738,20.0299466 195.583519,19.7187518 195.583519,19.359375 C195.583519,19.0052066 195.524926,18.69922 195.407738,18.4414062 C195.29055,18.1835925 195.126489,17.9687509 194.91555,17.796875 C194.704612,17.6249991 194.449406,17.4973963 194.149925,17.4140625 C193.850445,17.3307287 193.521021,17.2890625 193.161644,17.2890625 L192.130394,17.2890625 L192.130394,16.1171875 Z M205.106957,10.6875 L203.380394,10.6875 L203.380394,23.75 L205.106957,23.75 L205.106957,24.9375 L202.013207,24.9375 L202.013207,9.5 L205.106957,9.5 L205.106957,10.6875 Z M212.130394,13.2421875 C212.130394,12.9973946 212.160342,12.7395847 212.220238,12.46875 C212.280134,12.1979153 212.368675,11.9309909 212.485863,11.6679688 C212.603051,11.4049466 212.744977,11.153647 212.911644,10.9140625 C213.078312,10.674478 213.271018,10.4609384 213.489769,10.2734375 L214.278832,10.8359375 C214.034039,11.205731 213.850447,11.5833314 213.72805,11.96875 C213.605654,12.3541686 213.544457,12.7708311 213.544457,13.21875 L213.544457,14.3828125 L212.130394,14.3828125 L212.130394,13.2421875 Z M220.692894,15.3046875 C220.994979,14.861977 221.367371,14.5169283 221.810082,14.2695312 C222.252792,14.0221342 222.750183,13.8958334 223.302269,13.890625 C223.74498,13.890625 224.147319,13.9544264 224.5093,14.0820312 C224.871281,14.2096361 225.179872,14.4088528 225.435082,14.6796875 C225.690291,14.9505222 225.886904,15.2929667 226.024925,15.7070312 C226.162947,16.1210958 226.231957,16.6119763 226.231957,17.1796875 L226.231957,22.5 L224.786644,22.5 L224.786644,17.1640625 C224.786644,16.4713507 224.621281,15.9557309 224.29055,15.6171875 C223.959819,15.2786441 223.487168,15.1119791 222.872582,15.1171875 C222.409038,15.1171875 221.988469,15.2304676 221.610863,15.4570312 C221.233257,15.6835949 220.92727,15.9843731 220.692894,16.359375 L220.692894,22.5 L219.247582,22.5 L219.247582,10.5 L220.692894,10.5 L220.692894,15.3046875 Z M228.442894,18.1953125 C228.442894,17.5859345 228.531435,17.0195339 228.708519,16.4960938 C228.885603,15.9726536 229.139507,15.5182311 229.470238,15.1328125 C229.800969,14.7473939 230.203308,14.4440115 230.677269,14.2226562 C231.15123,14.001301 231.685079,13.890625 232.278832,13.890625 C232.877793,13.890625 233.415548,14.001301 233.892113,14.2226562 C234.368678,14.4440115 234.772319,14.7473939 235.10305,15.1328125 C235.433781,15.5182311 235.687685,15.9726536 235.864769,16.4960938 C236.041853,17.0195339 236.130394,17.5859345 236.130394,18.1953125 L236.130394,18.3671875 C236.130394,18.9765655 236.041853,19.5416641 235.864769,20.0625 C235.687685,20.5833359 235.433781,21.0364564 235.10305,21.421875 C234.772319,21.8072936 234.36998,22.1093739 233.896019,22.328125 C233.422058,22.5468761 232.88821,22.65625 232.294457,22.65625 C231.695495,22.65625 231.15774,22.5468761 230.681175,22.328125 C230.20461,22.1093739 229.800969,21.8072936 229.470238,21.421875 C229.139507,21.0364564 228.885603,20.5833359 228.708519,20.0625 C228.531435,19.5416641 228.442894,18.9765655 228.442894,18.3671875 L228.442894,18.1953125 Z M229.888207,18.3671875 C229.888207,18.7838562 229.937685,19.1809877 230.036644,19.5585938 C230.135603,19.9361998 230.285341,20.2682277 230.485863,20.5546875 C230.686385,20.8411473 230.937684,21.0677075 231.239769,21.234375 C231.541854,21.4010425 231.893413,21.484375 232.294457,21.484375 C232.690292,21.484375 233.037945,21.4010425 233.337425,21.234375 C233.636906,21.0677075 233.886903,20.8411473 234.087425,20.5546875 C234.287947,20.2682277 234.437685,19.9361998 234.536644,19.5585938 C234.635603,19.1809877 234.685082,18.7838562 234.685082,18.3671875 L234.685082,18.1953125 C234.685082,17.7838521 234.634301,17.3893248 234.532738,17.0117188 C234.431175,16.6341127 234.280135,16.3020848 234.079613,16.015625 C233.879091,15.7291652 233.629093,15.5013029 233.329613,15.3320312 C233.030132,15.1627596 232.679875,15.078125 232.278832,15.078125 C231.877788,15.078125 231.528833,15.1627596 231.231957,15.3320312 C230.93508,15.5013029 230.686385,15.7291652 230.485863,16.015625 C230.285341,16.3020848 230.135603,16.6341127 230.036644,17.0117188 C229.937685,17.3893248 229.888207,17.7838521 229.888207,18.1953125 L229.888207,18.3671875 Z M243.935082,21.3359375 C243.65383,21.7526062 243.302271,22.0768218 242.880394,22.3085938 C242.458517,22.5403657 241.971543,22.65625 241.419457,22.65625 C240.976746,22.65625 240.575708,22.5872403 240.216332,22.4492188 C239.856955,22.3111972 239.549666,22.0963556 239.294457,21.8046875 C239.039247,21.5130194 238.842634,21.1419293 238.704613,20.6914062 C238.566591,20.2408832 238.497582,19.700524 238.497582,19.0703125 L238.497582,14.046875 L239.942894,14.046875 L239.942894,19.0859375 C239.942894,19.5442731 239.979352,19.9244777 240.052269,20.2265625 C240.125186,20.5286473 240.23456,20.7695304 240.380394,20.9492188 C240.526228,21.1289071 240.704612,21.255208 240.91555,21.328125 C241.126489,21.401042 241.369976,21.4375 241.646019,21.4375 C242.234564,21.4375 242.709819,21.3177095 243.0718,21.078125 C243.433781,20.8385405 243.70331,20.515627 243.880394,20.109375 L243.880394,14.046875 L245.333519,14.046875 L245.333519,22.5 L244.021019,22.5 L243.935082,21.3359375 Z M253.591332,13.890625 C253.726749,13.890625 253.867372,13.8945312 254.013207,13.9023438 C254.159041,13.9101563 254.298362,13.923177 254.431175,13.9414062 C254.563988,13.9596355 254.686383,13.9817707 254.798363,14.0078125 C254.910343,14.0338543 255.00279,14.0624998 255.075707,14.09375 L254.880394,15.5078125 C254.599143,15.4453122 254.332218,15.3997397 254.079613,15.3710938 C253.827007,15.3424478 253.562687,15.328125 253.286644,15.328125 C252.609557,15.328125 252.061386,15.4817693 251.642113,15.7890625 C251.22284,16.0963557 250.914249,16.5260389 250.716332,17.078125 L250.716332,22.5 L249.263207,22.5 L249.263207,14.046875 L250.638207,14.046875 L250.708519,15.390625 C251.052271,14.927081 251.465027,14.5611993 251.9468,14.2929688 C252.428574,14.0247382 252.976745,13.890625 253.591332,13.890625 Z M262.044457,11.4765625 C262.044457,11.7213554 262.014509,11.9791653 261.954613,12.25 C261.894717,12.5208347 261.806176,12.7877591 261.688988,13.0507812 C261.5718,13.3138034 261.429874,13.565103 261.263207,13.8046875 C261.096539,14.044272 260.903833,14.2578116 260.685082,14.4453125 L259.896019,13.8828125 C260.140812,13.513019 260.324404,13.1354186 260.4468,12.75 C260.569197,12.3645814 260.630394,11.9479189 260.630394,11.5 L260.630394,10.328125 L262.044457,10.328125 L262.044457,11.4765625 Z M269.060082,9.5 L272.161644,9.5 L272.161644,24.9375 L269.060082,24.9375 L269.060082,23.75 L270.794457,23.75 L270.794457,10.6875 L269.060082,10.6875 L269.060082,9.5 Z M282.130394,17.9609375 C282.130394,18.7057329 282.071801,19.4062467 281.954613,20.0625 C281.837425,20.7187533 281.679874,21.3268201 281.481957,21.8867188 C281.284039,22.4466174 281.056177,22.9570289 280.798363,23.4179688 C280.540549,23.8789086 280.269718,24.2903628 279.985863,24.6523438 C279.702007,25.0143247 279.415552,25.3216133 279.126488,25.5742188 C278.837424,25.8268242 278.562687,26.0260409 278.302269,26.171875 L277.997582,25.2890625 C278.3205,25.049478 278.642111,24.7148459 278.962425,24.2851562 C279.282739,23.8554666 279.569195,23.3359405 279.8218,22.7265625 C280.074406,22.1171845 280.280133,21.4166706 280.438988,20.625 C280.597843,19.8333294 280.677269,18.9505257 280.677269,17.9765625 L280.677269,17.8671875 C280.677269,16.8932243 280.593937,16.0091186 280.427269,15.2148438 C280.260602,14.4205689 280.04576,13.717451 279.782738,13.1054688 C279.519716,12.4934865 279.230656,11.9739605 278.91555,11.546875 C278.600445,11.1197895 278.294458,10.7864595 277.997582,10.546875 L278.302269,9.6640625 C278.562687,9.80989656 278.837424,10.0104154 279.126488,10.265625 C279.415552,10.5208346 279.702007,10.8281232 279.985863,11.1875 C280.269718,11.5468768 280.540549,11.958331 280.798363,12.421875 C281.056177,12.885419 281.284039,13.3971326 281.481957,13.9570312 C281.679874,14.5169299 281.837425,15.1249967 281.954613,15.78125 C282.071801,16.4375033 282.130394,17.1380171 282.130394,17.8828125 L282.130394,17.9609375 Z" id="Cell-input-text" fill="#000000"></path>
                            </g>
                            <g id="Cary-Jones-Indicator" transform="translate(336.000000, 79.000000)">
                                <path d="M5.65383155,17.5 L5.65383155,38.5" id="Line-8" stroke="#BB4430" stroke-width="2" stroke-linecap="square"></path>
                                <rect id="Rectangle-42" fill="#BB4430" x="0.653831546" y="0" width="89" height="20"></rect>
                                <text id="Cary-Jones" font-family="Roboto-Regular, Roboto" font-size="16" font-weight="normal" fill="#FFFFFF">
                                    <tspan x="4.65383155" y="15.5">Cary Jones</tspan>
                                </text>
                            </g>
                            <g id="First-cell" transform="translate(28.000000, 23.000000)">
                                <g id="Cell" transform="translate(0.000000, 9.000000)">
                                    <rect id="Cell-input" fill="#2196F3" x="0.653831546" y="0.5" width="6" height="39"></rect>
                                    <text id="Cell-prompt" font-family="RobotoMono-Bold, Roboto Mono" font-size="19.5" font-weight="bold" fill="#2196F3">
                                        <tspan x="22.5" y="28">[1]</tspan>
                                    </text>
                                    <g id="Cell---Active">
                                        <use fill="#FFFFFF" fill-rule="evenodd" xlink:href="#path-7"></use>
                                        <use fill="black" fill-opacity="1" filter="url(#filter-8)" xlink:href="#path-7"></use>
                                        <use stroke="#2196F3" stroke-width="1.5" xlink:href="#path-7"></use>
                                    </g>
                                    <path d="M86.177269,23.296875 L84.114769,23.296875 L83.489769,26.5 L82.3725815,26.5 L82.9975815,23.296875 L81.130394,23.296875 L81.130394,22.2265625 L83.2007065,22.2265625 L83.739769,19.4609375 L81.724144,19.4609375 L81.724144,18.375 L83.9507065,18.375 L84.5913315,15.125 L85.708519,15.125 L85.067894,18.375 L87.130394,18.375 L87.771019,15.125 L88.8882065,15.125 L88.2475815,18.375 L89.849144,18.375 L89.849144,19.4609375 L88.036644,19.4609375 L87.4975815,22.2265625 L89.2632065,22.2265625 L89.2632065,23.296875 L87.2944565,23.296875 L86.6694565,26.5 L85.552269,26.5 L86.177269,23.296875 Z M84.317894,22.2265625 L86.380394,22.2265625 L86.9194565,19.4609375 L84.8569565,19.4609375 L84.317894,22.2265625 Z M106.646019,23.5546875 L102.849144,23.5546875 L101.935082,26.5 L100.489769,26.5 L104.161644,15.125 L105.372582,15.125 L108.981957,26.5 L107.544457,26.5 L106.646019,23.5546875 Z M103.239769,22.296875 L106.263207,22.296875 L104.763207,17.359375 L103.239769,22.296875 Z M112.114769,18.046875 L112.216332,19.296875 C112.523625,18.8593728 112.901225,18.5169283 113.349144,18.2695312 C113.797063,18.0221342 114.297058,17.8958334 114.849144,17.890625 C115.291855,17.890625 115.694194,17.9531244 116.056175,18.078125 C116.418156,18.2031256 116.726747,18.3984362 116.981957,18.6640625 C117.237166,18.9296888 117.433779,19.266925 117.5718,19.6757812 C117.709822,20.0846375 117.778832,20.5703097 117.778832,21.1328125 L117.778832,26.5 L116.333519,26.5 L116.333519,21.1640625 C116.333519,20.7890606 116.291853,20.4713555 116.208519,20.2109375 C116.125185,19.9505195 116.001489,19.7395841 115.837425,19.578125 C115.673362,19.4166659 115.472843,19.2994795 115.235863,19.2265625 C114.998882,19.1536455 114.72675,19.1171875 114.419457,19.1171875 C113.935079,19.1171875 113.509302,19.23828 113.142113,19.4804688 C112.774923,19.7226575 112.481958,20.0416647 112.263207,20.4375 L112.263207,26.5 L110.817894,26.5 L110.817894,18.046875 L112.114769,18.046875 Z M125.974144,26.5 C125.916852,26.3906245 125.87128,26.2539071 125.837425,26.0898438 C125.803571,25.9257804 125.778832,25.7552092 125.763207,25.578125 C125.617372,25.7239591 125.454614,25.8619785 125.274925,25.9921875 C125.095237,26.1223965 124.897322,26.2369787 124.681175,26.3359375 C124.465028,26.4348963 124.234562,26.5130205 123.989769,26.5703125 C123.744976,26.6276045 123.484562,26.65625 123.208519,26.65625 C122.7606,26.65625 122.355656,26.5911465 121.993675,26.4609375 C121.631694,26.3307285 121.324406,26.154949 121.0718,25.9335938 C120.819195,25.7122385 120.623884,25.4492203 120.485863,25.1445312 C120.347841,24.8398422 120.278832,24.5104184 120.278832,24.15625 C120.278832,23.692706 120.371279,23.2864601 120.556175,22.9375 C120.741072,22.5885399 121.002788,22.2981782 121.341332,22.0664062 C121.679875,21.8346343 122.087423,21.6614589 122.563988,21.546875 C123.040553,21.4322911 123.573099,21.375 124.161644,21.375 L125.739769,21.375 L125.739769,20.7109375 C125.739769,20.4557279 125.692895,20.2265635 125.599144,20.0234375 C125.505394,19.8203115 125.372582,19.6471361 125.200707,19.5039062 C125.028831,19.3606764 124.819197,19.2500004 124.5718,19.171875 C124.324403,19.0937496 124.047062,19.0546875 123.739769,19.0546875 C123.453309,19.0546875 123.196801,19.0911455 122.970238,19.1640625 C122.743674,19.2369795 122.55227,19.3333327 122.396019,19.453125 C122.239768,19.5729173 122.118676,19.7148429 122.032738,19.8789062 C121.9468,20.0429696 121.903832,20.2135408 121.903832,20.390625 L120.450707,20.390625 C120.455915,20.0833318 120.535341,19.7812515 120.688988,19.484375 C120.842634,19.1874985 121.063986,18.9205741 121.35305,18.6835938 C121.642114,18.4466134 121.993673,18.2552091 122.407738,18.109375 C122.821802,17.9635409 123.29185,17.890625 123.817894,17.890625 C124.297063,17.890625 124.742371,17.9492182 125.153832,18.0664062 C125.565292,18.1835943 125.920757,18.3606759 126.220238,18.5976562 C126.519718,18.8346366 126.755393,19.1302066 126.927269,19.484375 C127.099145,19.8385434 127.185082,20.2526018 127.185082,20.7265625 L127.185082,24.65625 C127.185082,24.9375014 127.211123,25.2356755 127.263207,25.5507812 C127.31529,25.865887 127.388206,26.1406238 127.481957,26.375 L127.481957,26.5 L125.974144,26.5 Z M123.419457,25.3984375 C123.700708,25.3984375 123.963726,25.3619795 124.208519,25.2890625 C124.453312,25.2161455 124.675966,25.1197923 124.876488,25 C125.07701,24.8802077 125.250185,24.7434904 125.396019,24.5898438 C125.541853,24.4361971 125.656435,24.2760425 125.739769,24.109375 L125.739769,22.3984375 L124.396019,22.3984375 C123.552265,22.3984375 122.896021,22.5234362 122.427269,22.7734375 C121.958517,23.0234388 121.724144,23.416664 121.724144,23.953125 C121.724144,24.1614594 121.7593,24.3541658 121.829613,24.53125 C121.899926,24.7083342 122.005393,24.8606764 122.146019,24.9882812 C122.286645,25.1158861 122.463726,25.2161455 122.677269,25.2890625 C122.890812,25.3619795 123.138205,25.3984375 123.419457,25.3984375 Z M130.247582,14.5 L134.567894,14.5 L134.567894,25.25 L137.325707,25.25 L137.325707,26.5 L130.247582,26.5 L130.247582,25.25 L133.122582,25.25 L133.122582,15.7578125 L130.247582,15.7578125 L130.247582,14.5 Z M142.731957,23.5 L143.106957,24.5234375 L145.685082,18.046875 L147.302269,18.046875 L143.013207,27.8046875 C142.914248,28.0234386 142.787947,28.2552071 142.6343,28.5 C142.480654,28.7447929 142.294458,28.9713531 142.075707,29.1796875 C141.856955,29.3880219 141.60175,29.5624993 141.310082,29.703125 C141.018413,29.8437507 140.682479,29.9140625 140.302269,29.9140625 C140.23456,29.9140625 140.15904,29.9101563 140.075707,29.9023438 C139.992373,29.8945312 139.90904,29.8841146 139.825707,29.8710938 C139.742373,29.8580729 139.664249,29.8437501 139.591332,29.828125 C139.518415,29.8124999 139.458519,29.7994792 139.411644,29.7890625 L139.646019,28.609375 C139.682478,28.609375 139.731956,28.6119791 139.794457,28.6171875 C139.856957,28.6223959 139.92206,28.6276041 139.989769,28.6328125 C140.057478,28.6380209 140.122581,28.6419271 140.185082,28.6445312 C140.247582,28.6471354 140.297061,28.6484375 140.333519,28.6484375 C140.531437,28.6484375 140.712424,28.5937505 140.876488,28.484375 C141.040551,28.3749995 141.186383,28.2447924 141.313988,28.09375 C141.441593,27.9427076 141.550967,27.7864591 141.642113,27.625 C141.733259,27.4635409 141.804873,27.3307297 141.856957,27.2265625 L142.435082,26.1015625 L138.794457,18.046875 L140.411644,18.046875 L142.731957,23.5 Z M150.958519,25.3203125 L156.341332,25.3203125 L156.341332,26.5 L149.114769,26.5 L149.114769,25.4375 L154.161644,19.2421875 L149.185082,19.2421875 L149.185082,18.046875 L156.060082,18.046875 L156.060082,19.0703125 L150.958519,25.3203125 Z M159.052269,18.046875 L163.372582,18.046875 L163.372582,25.25 L166.130394,25.25 L166.130394,26.5 L159.052269,26.5 L159.052269,25.25 L161.927269,25.25 L161.927269,19.3046875 L159.052269,19.3046875 L159.052269,18.046875 Z M161.739769,15.828125 C161.739769,15.5885405 161.811383,15.3867196 161.954613,15.2226562 C162.097843,15.0585929 162.315288,14.9765625 162.606957,14.9765625 C162.893416,14.9765625 163.10956,15.0585929 163.255394,15.2226562 C163.401228,15.3867196 163.474144,15.5885405 163.474144,15.828125 C163.474144,16.0625012 163.401228,16.2578117 163.255394,16.4140625 C163.10956,16.5703133 162.893416,16.6484375 162.606957,16.6484375 C162.315288,16.6484375 162.097843,16.5703133 161.954613,16.4140625 C161.811383,16.2578117 161.739769,16.0625012 161.739769,15.828125 Z M169.724144,18.046875 L169.825707,19.296875 C170.133,18.8593728 170.5106,18.5169283 170.958519,18.2695312 C171.406438,18.0221342 171.906433,17.8958334 172.458519,17.890625 C172.90123,17.890625 173.303569,17.9531244 173.66555,18.078125 C174.027531,18.2031256 174.336122,18.3984362 174.591332,18.6640625 C174.846541,18.9296888 175.043154,19.266925 175.181175,19.6757812 C175.319197,20.0846375 175.388207,20.5703097 175.388207,21.1328125 L175.388207,26.5 L173.942894,26.5 L173.942894,21.1640625 C173.942894,20.7890606 173.901228,20.4713555 173.817894,20.2109375 C173.73456,19.9505195 173.610864,19.7395841 173.4468,19.578125 C173.282737,19.4166659 173.082218,19.2994795 172.845238,19.2265625 C172.608257,19.1536455 172.336125,19.1171875 172.028832,19.1171875 C171.544454,19.1171875 171.118677,19.23828 170.751488,19.4804688 C170.384298,19.7226575 170.091333,20.0416647 169.872582,20.4375 L169.872582,26.5 L168.427269,26.5 L168.427269,18.046875 L169.724144,18.046875 Z M177.763207,22.203125 C177.763207,21.5729135 177.840029,20.9934922 177.993675,20.4648438 C178.147322,19.9361953 178.369976,19.4817727 178.661644,19.1015625 C178.953312,18.7213523 179.307475,18.4244802 179.724144,18.2109375 C180.140813,17.9973948 180.612162,17.890625 181.138207,17.890625 C181.659042,17.890625 182.116069,17.983072 182.5093,18.1679688 C182.902531,18.3528655 183.237163,18.6197899 183.513207,18.96875 L183.583519,18.046875 L184.896019,18.046875 L184.896019,26.3203125 C184.896019,26.877607 184.80878,27.3723937 184.6343,27.8046875 C184.45982,28.2369813 184.215031,28.6041652 183.899925,28.90625 C183.58482,29.2083348 183.208521,29.4374992 182.771019,29.59375 C182.333517,29.7500008 181.849147,29.828125 181.317894,29.828125 C181.099143,29.828125 180.849145,29.8033857 180.567894,29.7539062 C180.286643,29.7044268 180.001489,29.6236985 179.712425,29.5117188 C179.423361,29.399739 179.144718,29.2500009 178.876488,29.0625 C178.608257,28.8749991 178.377791,28.6432305 178.185082,28.3671875 L178.935082,27.5 C179.112166,27.7135427 179.294456,27.8945305 179.481957,28.0429688 C179.669457,28.191407 179.85956,28.3098954 180.052269,28.3984375 C180.244978,28.4869796 180.437685,28.5507811 180.630394,28.5898438 C180.823103,28.6289064 181.01581,28.6484375 181.208519,28.6484375 C181.552271,28.6484375 181.862163,28.5989588 182.138207,28.5 C182.41425,28.4010412 182.649924,28.2565114 182.845238,28.0664062 C183.040551,27.8763011 183.190289,27.6406264 183.294457,27.359375 C183.398624,27.0781236 183.450707,26.7552102 183.450707,26.390625 L183.450707,25.6640625 C183.169455,25.9869808 182.837427,26.2330721 182.454613,26.4023438 C182.071798,26.5716154 181.627792,26.65625 181.122582,26.65625 C180.606954,26.65625 180.140813,26.5468761 179.724144,26.328125 C179.307475,26.1093739 178.954614,25.8072936 178.66555,25.421875 C178.376486,25.0364564 178.153832,24.5820339 177.997582,24.0585938 C177.841331,23.5351536 177.763207,22.9713572 177.763207,22.3671875 L177.763207,22.203125 Z M179.208519,22.3671875 C179.208519,22.7786479 179.251487,23.169269 179.337425,23.5390625 C179.423363,23.908856 179.558779,24.2343736 179.743675,24.515625 C179.928572,24.7968764 180.164247,25.0195304 180.450707,25.1835938 C180.737166,25.3476571 181.080913,25.4296875 181.481957,25.4296875 C181.731958,25.4296875 181.957216,25.3997399 182.157738,25.3398438 C182.35826,25.2799476 182.537945,25.195313 182.6968,25.0859375 C182.855655,24.976562 182.997581,24.8463549 183.122582,24.6953125 C183.247582,24.5442701 183.356956,24.3776051 183.450707,24.1953125 L183.450707,20.3203125 C183.356956,20.1432283 183.247582,19.9817716 183.122582,19.8359375 C182.997581,19.6901034 182.854353,19.5638026 182.692894,19.4570312 C182.531435,19.3502599 182.351749,19.2669274 182.153832,19.2070312 C181.955914,19.1471351 181.737166,19.1171875 181.497582,19.1171875 C181.09133,19.1171875 180.743677,19.20052 180.454613,19.3671875 C180.165549,19.533855 179.928572,19.7591132 179.743675,20.0429688 C179.558779,20.3268243 179.423363,20.6549461 179.337425,21.0273438 C179.251487,21.3997414 179.208519,21.7916646 179.208519,22.203125 L179.208519,22.3671875 Z M204.903832,16.359375 L201.388207,16.359375 L201.388207,26.5 L199.981957,26.5 L199.981957,16.359375 L196.466332,16.359375 L196.466332,15.125 L204.903832,15.125 L204.903832,16.359375 Z M212.372582,17.890625 C212.507999,17.890625 212.648622,17.8945312 212.794457,17.9023438 C212.940291,17.9101563 213.079612,17.923177 213.212425,17.9414062 C213.345238,17.9596355 213.467633,17.9817707 213.579613,18.0078125 C213.691593,18.0338543 213.78404,18.0624998 213.856957,18.09375 L213.661644,19.5078125 C213.380393,19.4453122 213.113468,19.3997397 212.860863,19.3710938 C212.608257,19.3424478 212.343937,19.328125 212.067894,19.328125 C211.390807,19.328125 210.842636,19.4817693 210.423363,19.7890625 C210.00409,20.0963557 209.695499,20.5260389 209.497582,21.078125 L209.497582,26.5 L208.044457,26.5 L208.044457,18.046875 L209.419457,18.046875 L209.489769,19.390625 C209.833521,18.927081 210.246277,18.5611993 210.72805,18.2929688 C211.209824,18.0247382 211.757995,17.890625 212.372582,17.890625 Z M221.989769,26.5 C221.932477,26.3906245 221.886905,26.2539071 221.85305,26.0898438 C221.819196,25.9257804 221.794457,25.7552092 221.778832,25.578125 C221.632997,25.7239591 221.470239,25.8619785 221.29055,25.9921875 C221.110862,26.1223965 220.912947,26.2369787 220.6968,26.3359375 C220.480653,26.4348963 220.250187,26.5130205 220.005394,26.5703125 C219.760601,26.6276045 219.500187,26.65625 219.224144,26.65625 C218.776225,26.65625 218.371281,26.5911465 218.0093,26.4609375 C217.647319,26.3307285 217.340031,26.154949 217.087425,25.9335938 C216.83482,25.7122385 216.639509,25.4492203 216.501488,25.1445312 C216.363466,24.8398422 216.294457,24.5104184 216.294457,24.15625 C216.294457,23.692706 216.386904,23.2864601 216.5718,22.9375 C216.756697,22.5885399 217.018413,22.2981782 217.356957,22.0664062 C217.6955,21.8346343 218.103048,21.6614589 218.579613,21.546875 C219.056178,21.4322911 219.588724,21.375 220.177269,21.375 L221.755394,21.375 L221.755394,20.7109375 C221.755394,20.4557279 221.70852,20.2265635 221.614769,20.0234375 C221.521019,19.8203115 221.388207,19.6471361 221.216332,19.5039062 C221.044456,19.3606764 220.834822,19.2500004 220.587425,19.171875 C220.340028,19.0937496 220.062687,19.0546875 219.755394,19.0546875 C219.468934,19.0546875 219.212426,19.0911455 218.985863,19.1640625 C218.759299,19.2369795 218.567895,19.3333327 218.411644,19.453125 C218.255393,19.5729173 218.134301,19.7148429 218.048363,19.8789062 C217.962425,20.0429696 217.919457,20.2135408 217.919457,20.390625 L216.466332,20.390625 C216.47154,20.0833318 216.550966,19.7812515 216.704613,19.484375 C216.858259,19.1874985 217.079611,18.9205741 217.368675,18.6835938 C217.657739,18.4466134 218.009298,18.2552091 218.423363,18.109375 C218.837427,17.9635409 219.307475,17.890625 219.833519,17.890625 C220.312688,17.890625 220.757996,17.9492182 221.169457,18.0664062 C221.580917,18.1835943 221.936382,18.3606759 222.235863,18.5976562 C222.535343,18.8346366 222.771018,19.1302066 222.942894,19.484375 C223.11477,19.8385434 223.200707,20.2526018 223.200707,20.7265625 L223.200707,24.65625 C223.200707,24.9375014 223.226748,25.2356755 223.278832,25.5507812 C223.330915,25.865887 223.403831,26.1406238 223.497582,26.375 L223.497582,26.5 L221.989769,26.5 Z M219.435082,25.3984375 C219.716333,25.3984375 219.979351,25.3619795 220.224144,25.2890625 C220.468937,25.2161455 220.691591,25.1197923 220.892113,25 C221.092635,24.8802077 221.26581,24.7434904 221.411644,24.5898438 C221.557478,24.4361971 221.67206,24.2760425 221.755394,24.109375 L221.755394,22.3984375 L220.411644,22.3984375 C219.56789,22.3984375 218.911646,22.5234362 218.442894,22.7734375 C217.974142,23.0234388 217.739769,23.416664 217.739769,23.953125 C217.739769,24.1614594 217.774925,24.3541658 217.845238,24.53125 C217.915551,24.7083342 218.021018,24.8606764 218.161644,24.9882812 C218.30227,25.1158861 218.479351,25.2161455 218.692894,25.2890625 C218.906437,25.3619795 219.15383,25.3984375 219.435082,25.3984375 Z M228.192894,26.5 L228.192894,19.1640625 L225.864769,19.1640625 L225.864769,18.046875 L228.192894,18.046875 L228.192894,17.453125 C228.192894,16.9114556 228.27232,16.4362 228.431175,16.0273438 C228.59003,15.6184875 228.813986,15.276043 229.10305,15 C229.392114,14.723957 229.739767,14.5156257 230.146019,14.375 C230.552271,14.2343743 231.005392,14.1640625 231.505394,14.1640625 C231.849146,14.1640625 232.183778,14.192708 232.5093,14.25 C232.834823,14.307292 233.169455,14.3802079 233.513207,14.46875 L233.341332,15.6640625 C233.127789,15.5911455 232.879093,15.527344 232.595238,15.4726562 C232.311382,15.4179685 232.008,15.390625 231.685082,15.390625 C231.007995,15.3958334 230.498885,15.5677066 230.157738,15.90625 C229.81659,16.2447934 229.646019,16.7604132 229.646019,17.453125 L229.646019,18.046875 L232.903832,18.046875 L232.903832,19.1640625 L229.646019,19.1640625 L229.646019,26.5 L228.192894,26.5 Z M237.802269,26.5 L237.802269,19.1640625 L235.474144,19.1640625 L235.474144,18.046875 L237.802269,18.046875 L237.802269,17.453125 C237.802269,16.9114556 237.881695,16.4362 238.04055,16.0273438 C238.199405,15.6184875 238.423361,15.276043 238.712425,15 C239.001489,14.723957 239.349142,14.5156257 239.755394,14.375 C240.161646,14.2343743 240.614767,14.1640625 241.114769,14.1640625 C241.458521,14.1640625 241.793153,14.192708 242.118675,14.25 C242.444198,14.307292 242.77883,14.3802079 243.122582,14.46875 L242.950707,15.6640625 C242.737164,15.5911455 242.488468,15.527344 242.204613,15.4726562 C241.920757,15.4179685 241.617375,15.390625 241.294457,15.390625 C240.61737,15.3958334 240.10826,15.5677066 239.767113,15.90625 C239.425965,16.2447934 239.255394,16.7604132 239.255394,17.453125 L239.255394,18.046875 L242.513207,18.046875 L242.513207,19.1640625 L239.255394,19.1640625 L239.255394,26.5 L237.802269,26.5 Z M245.481957,18.046875 L249.802269,18.046875 L249.802269,25.25 L252.560082,25.25 L252.560082,26.5 L245.481957,26.5 L245.481957,25.25 L248.356957,25.25 L248.356957,19.3046875 L245.481957,19.3046875 L245.481957,18.046875 Z M248.169457,15.828125 C248.169457,15.5885405 248.24107,15.3867196 248.3843,15.2226562 C248.52753,15.0585929 248.744976,14.9765625 249.036644,14.9765625 C249.323104,14.9765625 249.539247,15.0585929 249.685082,15.2226562 C249.830916,15.3867196 249.903832,15.5885405 249.903832,15.828125 C249.903832,16.0625012 249.830916,16.2578117 249.685082,16.4140625 C249.539247,16.5703133 249.323104,16.6484375 249.036644,16.6484375 C248.744976,16.6484375 248.52753,16.5703133 248.3843,16.4140625 C248.24107,16.2578117 248.169457,16.0625012 248.169457,15.828125 Z M258.458519,25.484375 C258.718937,25.484375 258.972841,25.4427088 259.220238,25.359375 C259.467635,25.2760412 259.687685,25.160157 259.880394,25.0117188 C260.073103,24.8632805 260.22805,24.6888031 260.345238,24.4882812 C260.462426,24.2877594 260.523623,24.0703137 260.528832,23.8359375 L261.896019,23.8359375 C261.890811,24.2109394 261.793155,24.5690087 261.60305,24.9101562 C261.412945,25.2513038 261.159041,25.55078 260.841332,25.8085938 C260.523622,26.0664075 260.159042,26.2721346 259.747582,26.4257812 C259.336121,26.5794279 258.906438,26.65625 258.458519,26.65625 C257.817891,26.65625 257.258001,26.5416678 256.778832,26.3125 C256.299662,26.0833322 255.899927,25.7747415 255.579613,25.3867188 C255.259299,24.998696 255.018416,24.5507838 254.856957,24.0429688 C254.695497,23.5351537 254.614769,23.0000028 254.614769,22.4375 L254.614769,22.109375 C254.614769,21.5520805 254.695497,21.0182317 254.856957,20.5078125 C255.018416,19.9973933 255.259299,19.548179 255.579613,19.1601562 C255.899927,18.7721335 256.299662,18.4635428 256.778832,18.234375 C257.258001,18.0052072 257.817891,17.890625 258.458519,17.890625 C258.958522,17.890625 259.418152,17.9700513 259.837425,18.1289062 C260.256698,18.2877612 260.618674,18.5039049 260.923363,18.7773438 C261.228052,19.0507826 261.466331,19.3749981 261.638207,19.75 C261.810082,20.1250019 261.896019,20.5260395 261.896019,20.953125 L260.528832,20.953125 C260.523623,20.6979154 260.467634,20.4570324 260.360863,20.2304688 C260.254091,20.0039051 260.109562,19.8046884 259.927269,19.6328125 C259.744976,19.4609366 259.527531,19.3255213 259.274925,19.2265625 C259.02232,19.1276037 258.750187,19.078125 258.458519,19.078125 C258.0106,19.078125 257.634302,19.1679679 257.329613,19.3476562 C257.024924,19.5273446 256.778832,19.7617173 256.591332,20.0507812 C256.403831,20.3398452 256.269717,20.6640607 256.188988,21.0234375 C256.108258,21.3828143 256.067894,21.7447898 256.067894,22.109375 L256.067894,22.4375 C256.067894,22.8072935 256.108258,23.1731753 256.188988,23.5351562 C256.269717,23.8971372 256.402529,24.2226548 256.587425,24.5117188 C256.772322,24.8007827 257.017111,25.0351554 257.3218,25.2148438 C257.626489,25.3945321 258.005392,25.484375 258.458519,25.484375 Z M273.911644,26.5 L273.911644,15.125 L276.544457,15.125 C277.336127,15.1354167 278.043151,15.26953 278.66555,15.5273438 C279.287949,15.7851575 279.813986,16.1445289 280.243675,16.6054688 C280.673365,17.0664086 281.001487,17.6184864 281.22805,18.2617188 C281.454614,18.9049511 281.570498,19.6171836 281.575707,20.3984375 L281.575707,21.234375 C281.570498,22.0156289 281.454614,22.7278614 281.22805,23.3710938 C281.001487,24.0143261 280.673365,24.5664039 280.243675,25.0273438 C279.813986,25.4882836 279.287949,25.847655 278.66555,26.1054688 C278.043151,26.3632825 277.336127,26.4947916 276.544457,26.5 L273.911644,26.5 Z M275.380394,16.3125 L275.380394,25.3203125 L276.544457,25.3203125 C277.159043,25.3151041 277.690288,25.2070323 278.138207,24.9960938 C278.586125,24.7851552 278.957215,24.4973977 279.251488,24.1328125 C279.54576,23.7682273 279.764508,23.3385441 279.907738,22.84375 C280.050968,22.3489559 280.125186,21.8125029 280.130394,21.234375 L280.130394,20.3828125 C280.125186,19.8046846 280.049666,19.2695337 279.903832,18.7773438 C279.757997,18.2851538 279.53925,17.8580747 279.247582,17.4960938 C278.955913,17.1341128 278.586125,16.8489594 278.138207,16.640625 C277.690288,16.4322906 277.159043,16.3229167 276.544457,16.3125 L275.380394,16.3125 Z M289.216332,26.5 C289.15904,26.3906245 289.113467,26.2539071 289.079613,26.0898438 C289.045758,25.9257804 289.021019,25.7552092 289.005394,25.578125 C288.85956,25.7239591 288.696801,25.8619785 288.517113,25.9921875 C288.337424,26.1223965 288.13951,26.2369787 287.923363,26.3359375 C287.707216,26.4348963 287.476749,26.5130205 287.231957,26.5703125 C286.987164,26.6276045 286.72675,26.65625 286.450707,26.65625 C286.002788,26.65625 285.597844,26.5911465 285.235863,26.4609375 C284.873882,26.3307285 284.566593,26.154949 284.313988,25.9335938 C284.061382,25.7122385 283.866072,25.4492203 283.72805,25.1445312 C283.590029,24.8398422 283.521019,24.5104184 283.521019,24.15625 C283.521019,23.692706 283.613466,23.2864601 283.798363,22.9375 C283.98326,22.5885399 284.244976,22.2981782 284.583519,22.0664062 C284.922062,21.8346343 285.32961,21.6614589 285.806175,21.546875 C286.28274,21.4322911 286.815287,21.375 287.403832,21.375 L288.981957,21.375 L288.981957,20.7109375 C288.981957,20.4557279 288.935082,20.2265635 288.841332,20.0234375 C288.747581,19.8203115 288.61477,19.6471361 288.442894,19.5039062 C288.271018,19.3606764 288.061385,19.2500004 287.813988,19.171875 C287.566591,19.0937496 287.28925,19.0546875 286.981957,19.0546875 C286.695497,19.0546875 286.438989,19.0911455 286.212425,19.1640625 C285.985862,19.2369795 285.794457,19.3333327 285.638207,19.453125 C285.481956,19.5729173 285.360863,19.7148429 285.274925,19.8789062 C285.188987,20.0429696 285.146019,20.2135408 285.146019,20.390625 L283.692894,20.390625 C283.698102,20.0833318 283.777529,19.7812515 283.931175,19.484375 C284.084822,19.1874985 284.306174,18.9205741 284.595238,18.6835938 C284.884302,18.4466134 285.235861,18.2552091 285.649925,18.109375 C286.06399,17.9635409 286.534037,17.890625 287.060082,17.890625 C287.539251,17.890625 287.984559,17.9492182 288.396019,18.0664062 C288.807479,18.1835943 289.162945,18.3606759 289.462425,18.5976562 C289.761906,18.8346366 289.997581,19.1302066 290.169457,19.484375 C290.341332,19.8385434 290.427269,20.2526018 290.427269,20.7265625 L290.427269,24.65625 C290.427269,24.9375014 290.45331,25.2356755 290.505394,25.5507812 C290.557478,25.865887 290.630394,26.1406238 290.724144,26.375 L290.724144,26.5 L289.216332,26.5 Z M286.661644,25.3984375 C286.942895,25.3984375 287.205914,25.3619795 287.450707,25.2890625 C287.695499,25.2161455 287.918153,25.1197923 288.118675,25 C288.319197,24.8802077 288.492372,24.7434904 288.638207,24.5898438 C288.784041,24.4361971 288.898623,24.2760425 288.981957,24.109375 L288.981957,22.3984375 L287.638207,22.3984375 C286.794452,22.3984375 286.138209,22.5234362 285.669457,22.7734375 C285.200704,23.0234388 284.966332,23.416664 284.966332,23.953125 C284.966332,24.1614594 285.001487,24.3541658 285.0718,24.53125 C285.142113,24.7083342 285.247581,24.8606764 285.388207,24.9882812 C285.528832,25.1158861 285.705914,25.2161455 285.919457,25.2890625 C286.132999,25.3619795 286.380393,25.3984375 286.661644,25.3984375 Z M296.685082,16 L296.685082,18.046875 L299.903832,18.046875 L299.903832,19.1640625 L296.685082,19.1640625 L296.685082,23.7578125 C296.685082,24.0859391 296.726748,24.3567698 296.810082,24.5703125 C296.893415,24.7838552 297.007997,24.9544264 297.153832,25.0820312 C297.299666,25.2096361 297.467633,25.2994789 297.657738,25.3515625 C297.847843,25.4036461 298.049664,25.4296875 298.263207,25.4296875 C298.419457,25.4296875 298.580914,25.420573 298.747582,25.4023438 C298.914249,25.3841145 299.077008,25.3619793 299.235863,25.3359375 C299.394718,25.3098957 299.543154,25.2825522 299.681175,25.2539062 C299.819197,25.2252603 299.932477,25.2005209 300.021019,25.1796875 L300.224144,26.203125 C300.104352,26.276042 299.95852,26.3398435 299.786644,26.3945312 C299.614768,26.449219 299.42727,26.4960936 299.224144,26.5351562 C299.021018,26.5742189 298.806176,26.6041666 298.579613,26.625 C298.353049,26.6458334 298.127791,26.65625 297.903832,26.65625 C297.52883,26.65625 297.178573,26.6028651 296.85305,26.4960938 C296.527528,26.3893224 296.244979,26.2200532 296.005394,25.9882812 C295.76581,25.7565093 295.577009,25.4570331 295.438988,25.0898438 C295.300966,24.7226544 295.231957,24.2786484 295.231957,23.7578125 L295.231957,19.1640625 L293.013207,19.1640625 L293.013207,18.046875 L295.231957,18.046875 L295.231957,16 L296.685082,16 Z M308.419457,26.5 C308.362165,26.3906245 308.316592,26.2539071 308.282738,26.0898438 C308.248883,25.9257804 308.224144,25.7552092 308.208519,25.578125 C308.062685,25.7239591 307.899926,25.8619785 307.720238,25.9921875 C307.540549,26.1223965 307.342635,26.2369787 307.126488,26.3359375 C306.910341,26.4348963 306.679874,26.5130205 306.435082,26.5703125 C306.190289,26.6276045 305.929875,26.65625 305.653832,26.65625 C305.205913,26.65625 304.800969,26.5911465 304.438988,26.4609375 C304.077007,26.3307285 303.769718,26.154949 303.517113,25.9335938 C303.264507,25.7122385 303.069197,25.4492203 302.931175,25.1445312 C302.793154,24.8398422 302.724144,24.5104184 302.724144,24.15625 C302.724144,23.692706 302.816591,23.2864601 303.001488,22.9375 C303.186385,22.5885399 303.448101,22.2981782 303.786644,22.0664062 C304.125187,21.8346343 304.532735,21.6614589 305.0093,21.546875 C305.485865,21.4322911 306.018412,21.375 306.606957,21.375 L308.185082,21.375 L308.185082,20.7109375 C308.185082,20.4557279 308.138207,20.2265635 308.044457,20.0234375 C307.950706,19.8203115 307.817895,19.6471361 307.646019,19.5039062 C307.474143,19.3606764 307.26451,19.2500004 307.017113,19.171875 C306.769716,19.0937496 306.492375,19.0546875 306.185082,19.0546875 C305.898622,19.0546875 305.642114,19.0911455 305.41555,19.1640625 C305.188987,19.2369795 304.997582,19.3333327 304.841332,19.453125 C304.685081,19.5729173 304.563988,19.7148429 304.47805,19.8789062 C304.392112,20.0429696 304.349144,20.2135408 304.349144,20.390625 L302.896019,20.390625 C302.901227,20.0833318 302.980654,19.7812515 303.1343,19.484375 C303.287947,19.1874985 303.509299,18.9205741 303.798363,18.6835938 C304.087427,18.4466134 304.438986,18.2552091 304.85305,18.109375 C305.267115,17.9635409 305.737162,17.890625 306.263207,17.890625 C306.742376,17.890625 307.187684,17.9492182 307.599144,18.0664062 C308.010604,18.1835943 308.36607,18.3606759 308.66555,18.5976562 C308.965031,18.8346366 309.200706,19.1302066 309.372582,19.484375 C309.544457,19.8385434 309.630394,20.2526018 309.630394,20.7265625 L309.630394,24.65625 C309.630394,24.9375014 309.656435,25.2356755 309.708519,25.5507812 C309.760603,25.865887 309.833519,26.1406238 309.927269,26.375 L309.927269,26.5 L308.419457,26.5 Z M305.864769,25.3984375 C306.14602,25.3984375 306.409039,25.3619795 306.653832,25.2890625 C306.898624,25.2161455 307.121278,25.1197923 307.3218,25 C307.522322,24.8802077 307.695497,24.7434904 307.841332,24.5898438 C307.987166,24.4361971 308.101748,24.2760425 308.185082,24.109375 L308.185082,22.3984375 L306.841332,22.3984375 C305.997577,22.3984375 305.341334,22.5234362 304.872582,22.7734375 C304.403829,23.0234388 304.169457,23.416664 304.169457,23.953125 C304.169457,24.1614594 304.204612,24.3541658 304.274925,24.53125 C304.345238,24.7083342 304.450706,24.8606764 304.591332,24.9882812 C304.731957,25.1158861 304.909039,25.2161455 305.122582,25.2890625 C305.336124,25.3619795 305.583518,25.3984375 305.864769,25.3984375 Z" id="Cell-input-text" fill="#000000"></path>
                                </g>
                                <g id="John-Adams-Indicator" transform="translate(310.000000, 0.000000)">
                                    <path d="M5.65383155,17.5 L5.65383155,38.5" id="Line-8" stroke="#2196F3" stroke-width="2" stroke-linecap="square"></path>
                                    <rect id="Rectangle-42" fill="#2196F3" x="0.653831546" y="0" width="99" height="20"></rect>
                                    <text id="John-Adams" font-family="Roboto-Regular, Roboto" font-size="16" font-weight="normal" fill="#FFFFFF">
                                        <tspan x="4.65383155" y="15.5">John Adams</tspan>
                                    </text>
                                </g>
                            </g>
                        </g>
                    </g>
                </g>
            </g>
        </g>
    </g>
</svg>