<?xml version="1.0" encoding="UTF-8"?>
<svg width="73px" height="72px" viewBox="0 0 73 72" version="1.1" xmlns="http://www.w3.org/2000/svg" xmlns:xlink="http://www.w3.org/1999/xlink">
    <!-- Generator: Sketch 45.2 (43514) - http://www.bohemiancoding.com/sketch -->
    <title>Group 73</title>
    <desc>Created with Sketch.</desc>
    <defs></defs>
    <g id="Page-1" stroke="none" stroke-width="1" fill="none" fill-rule="evenodd">
        <g id="Artboard" transform="translate(-552.000000, -3801.000000)">
            <g id="Group-52" transform="translate(-49.653832, 0.000000)">
                <g id="Group-54" transform="translate(235.500000, 3371.000000)">
                    <g id="CSV-Viewer-Card" transform="translate(275.500000, 385.000000)">
                        <g id="Group-73" transform="translate(87.000000, 41.000000)">
                            <rect id="Rectangle-36" fill-opacity="0" fill="#D8D8D8" x="0" y="0" width="80" height="80"></rect>
                            <rect id="Rectangle-16" fill="#FFFFFF" x="13" y="12" width="55" height="56"></rect>
                            <path d="M3.75,4 L3.75,76 L75.75,76 L75.75,4 C75.75,4 3.75,4 3.75,4 Z M66.75,35.5 L44.25,35.5 L44.25,13 L66.75,13 L66.75,35.5 Z M35.25,13 L35.25,35.5 L12.75,35.5 L12.75,13 C12.75,13 35.25,13 35.25,13 Z M12.75,44.5 L35.25,44.5 L35.25,67 L12.75,67 L12.75,44.5 Z M44.25,67 L44.25,44.5 L66.75,44.5 L66.75,67 L44.25,67 Z" id="Shape" fill="#4CAF50" fill-rule="nonzero"></path>
                        </g>
                    </g>
                </g>
            </g>
        </g>
    </g>
</svg>