<?xml version="1.0" encoding="UTF-8"?>
<svg width="79px" height="72px" viewBox="0 0 79 72" version="1.1" xmlns="http://www.w3.org/2000/svg" xmlns:xlink="http://www.w3.org/1999/xlink">
    <!-- Generator: Sketch 45.2 (43514) - http://www.bohemiancoding.com/sketch -->
    <title>Group 40</title>
    <desc>Created with Sketch.</desc>
    <defs></defs>
    <g id="Page-1" stroke="none" stroke-width="1" fill="none" fill-rule="evenodd">
        <g id="Artboard" transform="translate(-547.000000, -3479.000000)">
            <g id="Group-52" transform="translate(-49.653832, 0.000000)">
                <g id="Group-54" transform="translate(235.500000, 3371.000000)">
                    <g id="Terminal-Card" transform="translate(275.500000, 65.000000)">
                        <g id="Group-40" transform="translate(85.000000, 38.827994)">
                            <rect id="Rectangle-33" fill-opacity="0" fill="#D8D8D8" x="0" y="0.505799768" width="80" height="80"></rect>
                            <path d="M47.8365203,61.7819524 L79.1826016,61.7819524 L79.1826016,71.8126984 L47.8365203,71.8126984 L47.8365203,61.7819524 Z M15.6284218,76.0444194 L15.6284218,67.7377079 C9.75103159,67.5026122 4.10873697,65.9353082 0.817398438,63.9761781 L3.40345014,53.7887017 C7.08661469,55.826197 12.1803529,57.6285967 17.9010127,57.6285967 C22.8380205,57.6285967 26.2860895,55.7478318 26.2860895,52.2213976 C26.2860895,48.9300591 23.4649421,46.8141986 17.0389955,44.6199729 C7.71353631,41.4853648 1.36595486,37.0969134 1.36595486,28.6334715 C1.36595486,20.9536816 6.77315388,14.9195609 16.098613,13.1171613 L16.098613,4.88881495 L24.6404202,4.88881495 L24.6404202,12.5686049 C30.5178104,12.8037005 34.4360706,14.0575437 37.2572179,15.4681174 L34.7495314,25.342133 C32.4769405,24.4017505 28.4803151,22.3642552 22.2110989,22.3642552 C16.5688043,22.3642552 14.6880394,24.7935765 14.6880394,27.2228978 C14.6880394,30.1224104 17.7442823,31.92481 25.1889766,34.7459573 C35.5331834,38.4291219 39.7649044,43.2093993 39.7649044,51.0459196 C39.7649044,58.8040747 34.2793402,65.465117 24.2485942,67.1891514 L24.2485942,76.1227846 L15.6284218,76.0444194 Z" id="Combined-Shape" fill="#FFFFFF" fill-rule="nonzero"></path>
                        </g>
                    </g>
                </g>
            </g>
        </g>
    </g>
</svg>