<?xml version="1.0" encoding="UTF-8"?>
<svg width="65px" height="61px" viewBox="0 0 65 61" version="1.1" xmlns="http://www.w3.org/2000/svg" xmlns:xlink="http://www.w3.org/1999/xlink">
    <!-- Generator: Sketch 45.2 (43514) - http://www.bohemiancoding.com/sketch -->
    <title>Group 72</title>
    <desc>Created with Sketch.</desc>
    <defs></defs>
    <g id="Page-1" stroke="none" stroke-width="1" fill="none" fill-rule="evenodd">
        <g id="Artboard" transform="translate(-280.000000, -3807.000000)">
            <g id="Group-52" transform="translate(-49.653832, 0.000000)">
                <g id="Group-54" transform="translate(235.500000, 3371.000000)">
                    <g id="Themeable-Card" transform="translate(1.500000, 385.000000)">
                        <g id="ic_brush_black_24px" transform="translate(84.665001, 41.000000)">
                            <g id="Group-72">
                                <rect id="Rectangle-35" fill-opacity="0" fill="#D8D8D8" x="0.37977826" y="0.431321881" width="80" height="80"></rect>
                                <path d="M25.3756116,47.1021552 C19.8422783,47.1021552 15.3756116,51.5688219 15.3756116,57.1021552 C15.3756116,61.4688219 11.5089449,63.7688219 8.70894493,63.7688219 C11.7756116,67.8354885 17.0089449,70.4354885 22.0422783,70.4354885 C29.4089449,70.4354885 35.3756116,64.4688219 35.3756116,57.1021552 C35.3756116,51.5688219 30.9089449,47.1021552 25.3756116,47.1021552 Z M71.0756116,15.8688219 L66.6089449,11.4021552 C65.3089449,10.1021552 63.2089449,10.1021552 61.9089449,11.4021552 L32.0422783,41.2688219 L41.2089449,50.4354885 L71.0756116,20.5688219 C72.3756116,19.2688219 72.3756116,17.1688219 71.0756116,15.8688219 Z" id="Shape" fill="#FFFFFF" fill-rule="nonzero"></path>
                            </g>
                        </g>
                    </g>
                </g>
            </g>
        </g>
    </g>
</svg>